<?xml version="1.0" encoding="utf-8"?>
<!-- Generator: Adobe Illustrator 16.0.0, SVG Export Plug-In . SVG Version: 6.00 Build 0)  -->
<!DOCTYPE svg PUBLIC "-//W3C//DTD SVG 1.1//EN" "http://www.w3.org/Graphics/SVG/1.1/DTD/svg11.dtd">
<svg version="1.1" id="Layer_1" xmlns="http://www.w3.org/2000/svg" xmlns:xlink="http://www.w3.org/1999/xlink" x="0px" y="0px"
	 width="434.924px" height="71.909px" viewBox="0 0 434.924 71.909" enable-background="new 0 0 434.924 71.909"
	 xml:space="preserve">
<g>
	<g>
		<path fill="#FFFFFF" d="M157.68,37.037v-0.162c0-12.184,9.511-22.525,22.525-22.525c12.933,0,22.438,10.179,22.438,22.354v0.171
			c0,12.179-9.589,22.523-22.604,22.523C167.108,59.398,157.68,49.217,157.68,37.037z M196.053,37.037v-0.162
			c0-9.262-6.921-16.855-16.013-16.855c-9.343,0-15.771,7.594-15.771,16.685v0.171c0,9.256,6.845,16.768,15.937,16.768
			C189.547,53.643,196.053,46.131,196.053,37.037z"/>
		<path fill="#FFFFFF" d="M208.98,65.905l2.924-5.009c4.923,3.59,10.428,5.51,16.604,5.51c9.507,0,15.679-5.258,15.679-15.354
			v-5.086c-3.751,5.006-9.011,9.093-16.93,9.093c-10.349,0-20.275-7.759-20.275-20.19v-0.166c0-12.594,10.012-20.354,20.275-20.354
			c8.089,0,13.344,4,16.851,8.674v-7.757h6.423V50.89c0,6.669-2.005,11.761-5.506,15.266c-3.84,3.837-9.594,5.753-16.435,5.753
			C221.418,71.908,214.742,69.91,208.98,65.905z M244.356,34.789v-0.17c0-8.843-7.678-14.6-15.848-14.6
			c-8.179,0-14.936,5.675-14.936,14.516v0.168c0,8.677,6.929,14.682,14.936,14.682C236.679,49.385,244.356,43.465,244.356,34.789z"
			/>
		<path fill="#FFFFFF" d="M259.072,0h7.344v7.091h-7.344V0z M259.491,15.267h6.422v43.13h-6.422V15.267z"/>
		<path fill="#FFFFFF" d="M156.367,52.307h-28.011V0h-6.585v58.396h39.882C159.604,56.641,157.829,54.59,156.367,52.307z"/>
		<path fill="#FFFFFF" d="M288.552,53.309c-4.338,0-7.258-1.922-7.258-7.178V20.939h12.773c1.316-2.117,2.903-4.02,4.7-5.673
			h-17.474V0h-6.416v46.969c0,8.759,5.252,12.18,12.176,12.18c3.621,0,6.677-0.917,9.521-2.959
			c-1.044-1.205-1.994-2.516-2.825-3.902C292.064,52.975,290.267,53.309,288.552,53.309z"/>
		<path fill="#FFFFFF" d="M295.638,36.955v-0.166c0-12.432,8.766-22.439,20.689-22.439c12.761,0,20.107,10.179,20.107,22.775
			c0,0.832,0,1.332-0.089,2.081h-34.2c0.922,9.349,7.512,14.601,15.186,14.601c5.922,0,10.095-2.42,13.595-6.088l4.009,3.588
			c-4.338,4.838-9.594,8.092-17.771,8.092C305.313,59.398,295.638,50.308,295.638,36.955z M329.93,34.453
			c-0.676-7.844-5.175-14.681-13.771-14.681c-7.508,0-13.182,6.257-14.014,14.681H329.93z"/>
		<path fill="#FFFFFF" d="M340.885,37.037v-0.162c0-12.184,9.515-22.525,22.106-22.525c8.182,0,13.269,3.419,17.271,7.674
			l-4.25,4.508c-3.42-3.592-7.264-6.512-13.104-6.512c-8.761,0-15.432,7.426-15.432,16.685v0.171
			c0,9.342,6.842,16.768,15.855,16.768c5.501,0,9.754-2.753,13.175-6.426l4.092,3.836c-4.339,4.838-9.515,8.346-17.607,8.346
			C350.399,59.398,340.885,49.133,340.885,37.037z"/>
		<path fill="#FFFFFF" d="M385.883,0h6.426v22.775c2.838-4.674,7.339-8.426,14.76-8.426c10.431,0,16.523,7.008,16.523,17.267v26.78
			h-6.423V33.203c0-8.01-4.341-13.016-11.929-13.016c-7.43,0-12.932,5.422-12.932,13.513v24.696h-6.426V0z"/>
		<path fill="#FFFFFF" d="M426.347,19.602V19.58c0-2.342,1.897-4.313,4.289-4.313c2.414,0,4.288,1.948,4.288,4.286v0.027
			c0,2.34-1.899,4.31-4.288,4.31C428.221,23.89,426.347,21.947,426.347,19.602z M434.432,19.58v-0.027
			c0-2.093-1.626-3.818-3.796-3.818c-2.146,0-3.797,1.749-3.797,3.846v0.021c0,2.098,1.626,3.823,3.797,3.823
			C432.779,23.425,434.432,21.675,434.432,19.58z M428.96,17.311h1.972c0.961,0,1.674,0.47,1.674,1.381
			c0,0.713-0.42,1.158-1.011,1.332l1.158,1.651h-1.009l-1.036-1.505h-0.91v1.505h-0.838V17.311z M430.856,19.479
			c0.567,0,0.888-0.296,0.888-0.713c0-0.47-0.32-0.718-0.888-0.718h-1.059v1.431H430.856z"/>
	</g>
	<g>
		<g>
			<path fill="#FFFFFF" d="M76.883,39.124c3.567,1.605,8.376,1.661,11.804,0.241c3.666-1.402,5.098-3.317,2.722-4.35
				c-2.658-1.056-10.678-1.473-16.436-0.754C70.575,35.126,72.367,37.406,76.883,39.124z"/>
		</g>
		<path fill="#FFFFFF" d="M68.419,61.692c4.008,4.93,10.159,9.616,13.297,9.933c2.409-0.39,1.122-4.369-1.946-7.975
			c-2.761-3.286-7.415-6.23-10.873-7.174C65.36,55.322,64.779,57.211,68.419,61.692z"/>
		<path fill="#FFFFFF" d="M68.382,14.972c7.073-3.735,12.26-8.746,11.576-11.195c-0.673-2.452-3.707-3.444-6.786-2.216
			c-3.074,1.233-8.257,6.242-11.586,11.193C58.268,17.707,61.31,18.701,68.382,14.972z"/>
		<path fill="#FFFFFF" d="M40.568,5.078c0.311-0.439,0.973-1.523,0.69-2.63c-0.35-1.394-2.239-2.116-3.835-2.317
			C34.707-0.22,32.5,0.201,30.59,0.613c-5.035,1.08-8.973,3.006-11.722,4.797c-1.992,1.311-4.193,3.036-6.341,5.152
			C5.343,17.668-1.746,29.477,0.384,43.274c1.225,8.253,5.553,14.319,9.264,18.837c4.866,5.641,12.6,10.826,19.41,9.623
			c3.145-0.617,5.572-3.197,6.718-5.306c4.391-8.12-2.837-18.685-4.93-22.876c-2.712-5.111-3.962-10.311-1.626-18.285
			C31.402,17.833,38.24,8.401,40.568,5.078z"/>
		<path fill="#FFFFFF" d="M68.899,33.567c-0.382-5.728-8.483-9.77-18.708-9.496c-8.078,0.221-17.145,5.123-17.134,11.267
			c0.004,6.729,5.208,9.447,7.236,10.252c0.495,0.201,0.664,0.139,0.971,1.036c0.592,1.712,2.256,5.891,7.697,5.877
			C56.322,52.486,69.457,41.988,68.899,33.567z M43.693,37.521c-0.521,2.121-0.934,1.191-1.174,0.593
			c-0.37-0.93-0.509-1.906-0.509-2.776c0-3.107,2.368-5.746,6.818-5.746c1.023,0,1.422,0.322,0.366,0.818
			c-0.359,0.175-0.756,0.426-1.095,0.639C45.852,32.451,44.362,34.77,43.693,37.521z M55.503,47.385
			c-1.147,1.373-2.981,2.399-4.447,2.399c-1.967,0-3.435-1.099-3.932-2.682c-0.129-0.392-0.175-0.813-0.197-1.262
			c-0.017-0.472,0.145-0.269,1.553,0.254c0.958,0.361,2.161,0.7,3.405,0.7c0.5,0,0.983-0.057,1.444-0.137
			C54.132,46.504,56.637,46.034,55.503,47.385z M53.762,41.486c-3.728,0-6.162-1.293-6.162-3.762c0-2.06,3.776-6.94,7.501-6.94
			c2.751,0,5.457,3.267,5.457,5.226C60.558,38.512,57.852,41.486,53.762,41.486z"/>
	</g>
</g>
</svg>
