<?xml version="1.0" encoding="utf-8"?>
<!-- Generator: Adobe Illustrator 16.0.0, SVG Export Plug-In . SVG Version: 6.00 Build 0)  -->
<!DOCTYPE svg PUBLIC "-//W3C//DTD SVG 1.1//EN" "http://www.w3.org/Graphics/SVG/1.1/DTD/svg11.dtd">
<svg version="1.1" id="Laag_1" xmlns="http://www.w3.org/2000/svg" xmlns:xlink="http://www.w3.org/1999/xlink" x="0px" y="0px"
	 width="666.722px" height="589.868px" viewBox="0 0 666.722 589.868" enable-background="new 0 0 666.722 589.868"
	 xml:space="preserve">
<path fill="#29ABE2" stroke="#000000" stroke-width="3" stroke-miterlimit="10" d="M524.238,478.747
	c-13.832-16.484-39.113-3.459-34.377,17.766c-1.426-5.682-6.705-12.219-9.705-16.916c-2.238,10.277,3.473,20.947,1.232,31.229
	c-6.834-5.535-11-17.195-19.676-20.447c-1.408,6.416-1.803,14.414-2.201,22.402c-1.715-4.422-6.994-10.949-9.006-14.074
	c1.443,5.693,0.613,9.543,6.166,14.791c-24.975-20.215-0.256-32.135-28.193-18.266c-9.074,4.754-2.48,13.693,2.066,17.381
	c-2.992-4.695-6.561-6.818-11.387-9.219c0.719,2.85,1.436,5.701,2.152,8.553c-2.709-5.992-8.547-9.941-11.842-13.359
	c-1.672,7.711-1.359,18.549-1.766,26.537c-2.709-5.982-6.703-12.23-7.873-19.215c-4.523,8.441-2.637,18.275-6.883,25.418
	c-2.438-7.266-1.758-16.531-1.906-21.959c-4.809,9.73-4.488,20.561-5.459,31.117c-3.428-8.826-3.479-20.945-13.143-25.748
	c-1.398,6.424-3.363,15.42-6.057,21.564c-3.984-6.254-5.861-16.088-7.021-23.068c-6.811,6.588-9.32,18.154-8.732,27.703
	c-3.43-8.824-4.023-18.363-9.305-24.912c-7.807,5.023-11.044,13.74-11.728,23.006c-0.879-8.258-1.764-16.527-3.906-25.062
	c-4.967,4.293-7.924,11.727-10.889,19.15c-1.445-5.691-5.184-25.348-12.152-24.178c-6.959,1.176-8.316,19.715-8.156,25.135
	c-3.445-8.836-5.881-16.09-10.877-23.906c-6.232,4.027-9.492,12.742-10.887,19.148c-4.984-7.807-9.709-16.924-16.271-23.725
	c-6.232,4.02-10.48,11.174-12.16,18.879c-5.004-7.83-8.707-15.363-10.871-23.896c-7.512,3.729-9.486,12.73-10.158,22.004
	c-1.17-6.984-3.604-14.246-6.324-20.223c-3.674,4.576-7.639,10.449-9.035,16.855c-5.279-6.52-7.434-15.07-9.879-22.316
	c-3.672,4.564-8.922,10.154-10.318,16.574c-2.154-8.543-1.191-9.102-2.354-16.074c-6.516,5.301-10.764,2.461-17.287,7.76
	c-6.826-5.527-7.705-3.791-7.582-10.5c-4.967,4.303-10.48,1.172-17.006,6.473c2.965-7.414,4.646-5.133,4.768-11.83
	c-12.359,1.328-19.998,1.783-29.637,9.107c0.402-7.984,3.643-16.705,7.883-23.855c-8.244,0.896-14.477,4.93-20.998,10.217
	c4.521-8.432,10.611-17.871,10.006-27.41c-12.076,0.037-21.717,7.381-31.084,13.396c3.686-4.584,2.523-11.566,3.652-16.695
	c-8.959-1.961-17.77,11.51-25.283,15.25c5.24-5.594,9.762-24.021,10.158-32.004c-9.234-0.674-18.311,14.068-27.109,17.537
	c6.809-6.592,13.605-23.18,18.127-31.619c-8.969-1.947-18.6,5.371-27.674,10.123c5.518-6.891,14.436-11.676,16.105-19.375
	l1.682,0.979c-12.777-7.77-27.857-9.92-29.689-10.67c35.352,1.572,19.795-6.947-5.012-16.328c3.934,0.031,9.172,0.061,13.088,1.406
	c-9.145-2.703-18.281-6.709-24.752-14.646c10.467,1.393,19.604,5.404,28.795,1.521c-2.512-10.527-12.943-15.865-20.738-23.812
	c7.852,1.369,15.68,4.057,22.242,2.789c-3.854-9.227-12.943-17.176-20.729-25.131c5.221,1.355,11.781,0.098,14.4,0.109
	c-3.889-5.287-9.08-10.602-15.572-15.879c5.223,1.344,11.785,0.066,17.014,1.424c-5.139-10.551-15.562-17.209-24.672-25.154
	c5.221,2.666,13.098,1.406,17.014,2.756c-5.176-7.934-10.342-15.854-15.51-23.768c18.283,6.697,23.633-5.109,9.328-18.348
	c3.924,1.342,9.184,0.059,11.785,1.391c-3.891-5.287-10.371-11.896-12.943-17.188c5.229,1.355,13.078,2.727,18.309,4.08
	c-2.535-9.229-12.943-17.178-18.127-25.109c6.543,1.361,14.375,4.049,20.918,5.412c-1.232-7.895-7.725-15.824-12.914-21.137
	c3.924,1.35,10.439,4.02,14.355,6.68c-3.889-5.287-3.836-10.535-7.723-15.824c3.906,2.658,9.129,4.004,13.043,6.664
	c1.35-5.244-1.295-1.326,2.654-3.927c-2.594-3.953-3.852-7.914-7.768-11.894c6.508,5.31,14.357,6.678,20.92,5.412
	c-2.529-9.219-7.705-17.142-8.93-26.344c7.824,3.987,18.254,9.326,27.447,6.754c-3.863-7.908-9.021-17.149-11.551-27.688
	c18.186,18.533,27.521,0.197,21.139-18.256c6.508,4,13.025,7.98,20.863,9.367c0.094-9.215-2.445-18.434-6.326-25.031
	c3.908,3.97,9.119,6.633,13.008,10.601c-2.539-7.897-7.713-14.51-11.594-21.108c7.787,7.936,19.68-3.811,24.846,4.121
	c-1.307-0.015-1.293-2.271-2.607-2.277l2.607,2.277c2.582,2.65,5.211,3.977,9.119,5.314c0.08-7.877-3.781-15.784-7.631-23.717
	c7.793,6.635,15.561,15.889,24.74,15.966c-2.535-9.229-7.701-17.151-12.879-25.074C151.859,76,159.654,82.625,168.811,84
	c1.387-7.87-1.15-17.088-5.021-23.694c6.5,5.3,14.32,10.626,23.494,10.684c0.035-5.25,2.717-11.803,0.145-17.083
	c7.799,7.928,15.57,17.209,27.338,19.909c2.709-9.174-1.135-19.719-3.674-28.938c5.189,6.595,10.371,11.896,18.213,14.585
	c-2.549-7.909-3.771-17.121-2.393-25c7.773,9.265,12.904,21.144,24.662,25.162c1.369-6.561,1.441-14.456,0.197-22.341
	c5.188,6.604,9.039,14.519,12.928,19.806c1.369-6.569,4.061-14.433,11.945-18.323c5.186,6.604,7.74,14.522,12.918,21.125
	c2.682-6.544,4.086-17.053,8.082-24.91c-0.062,6.567,3.816,13.174,6.385,18.435c3.994-6.528,7.992-14.395,14.59-19.591
	c-0.062,6.557,2.502,13.158,5.066,18.427c3.98-5.228,7.968-11.775,10.658-18.327c-1.402,9.188-1.479,18.404,5.021,23.694
	c4.006-7.847,9.289-14.38,15.904-20.913c-0.07,7.886,2.484,15.797,7.67,21.089c7.912-5.188,14.539-13.041,21.137-19.558
	c-0.062,6.557,1.182,15.772,6.363,21.074c6.607-6.525,10.596-13.063,15.916-20.921c-1.357,5.251-4.15,23.629,2.375,26.31
	c6.535,2.673,14.549-15.671,17.221-20.905c1.242,7.894,2.477,15.794,6.365,21.073c3.986-7.849,6.688-15.721,9.379-23.584
	c-1.396,9.188-0.172,18.4,6.326,25.021c6.604-5.224,9.301-14.397,14.604-22.25c-2.689,9.184-2.811,21.017,2.367,28.94
	c2.684-6.553,6.697-15.729,11.973-20.951c1.262,6.584,1.18,15.79,1.115,22.365c10.494-2.558,13.232-14.368,18.535-22.219
	c-1.396,10.51-4.113,21.002-1.586,31.549c1.352-5.26,2.746-14.449,6.734-20.997c2.557,7.9-1.469,17.077,1.068,26.302
	c2.689-6.552,7.975-11.765,11.945-17.003c-1.379,7.88-4.088,18.382-4.172,26.267c3.975-2.604,10.543-5.174,14.516-10.422
	c-1.334,2.624-2.666,5.245-4,7.867c5.24-1.274,9.191-2.563,13.152-6.481c-5.256,2.594-15.893,19.613-8.096,26.247
	c6.5,5.291,26.293-9.014,31.553-11.606c-6.578,3.896-6.625,7.832-9.301,13.066c2.656-2.604,9.256-7.809,11.91-11.744
	c-1.385,7.879-2.773,15.769-2.828,22.336c9.186-1.264,15.834-11.718,23.729-15.615c-0.1,10.525-8.039,19.671-8.139,30.187
	c3.971-3.919,10.57-9.132,13.225-14.36c-9.336,19.658,4.984,28.955,22.135,15.924c-5.275,3.922-9.273,11.779-9.354,19.656
	c3.969-3.91,9.219-5.185,13.193-9.1c-3.979,5.229-4.021,10.477-5.391,15.734c5.266-1.271,10.486,0.074,15.752-2.52
	c-10.643,17.02-6.799,27.564,14.25,17.192c-3.965,3.929-5.314,9.18-10.6,13.081c5.23,1.355,10.426,6.648,13.033,7.982
	c-5.236-0.045-13.123,2.535-18.381,3.807c5.186,6.613,11.693,10.604,19.543,13.293c-3.928-1.342-7.857-1.371-11.781-1.398
	c6.451,10.557,19.477,18.547,28.598,25.172c-9.191,2.572-19.65-0.141-27.49-2.826c3.84,10.564,12.941,18.508,22.053,25.141
	c-3.906-2.658-10.451-2.699-14.379-4.029c2.539,9.207,10.334,15.842,15.514,23.758c-6.537-1.354-14.387-2.73-20.912-5.402
	c6.508,3.998,10.389,10.586,12.926,18.513c-5.215-2.676-9.154-1.402-13.043-5.361c3.891,5.27,7.758,10.562,11.646,15.861
	c-2.611-1.334-6.545-1.363-9.146-2.703c3.879,5.297,7.75,11.893,9.01,18.479c-6.553-0.043-14.396-2.73-19.604-5.406
	c2.525,9.219,7.713,15.84,7.646,23.729c-3.906-2.658-9.127-5.332-11.699-10.613c3.852,9.244,5.049,21.074,2.355,30.27
	c-3.896-3.986-10.412-7.979-12.99-13.238c2.578,5.262,2.539,9.219,5.105,15.801c-6.527-3.994-6.547-1.035-13.07-2.406
	c-1.414,10.508,2.5,11.537,6.336,22.074c-3.891-3.969-9.119-5.314-13.008-9.283c3.85,7.916,9.01,17.148,8.91,27.664
	c-6.518-2.68-13.023-7.98-16.904-13.26c5.186,6.605,9.047,13.209,10.289,21.105c-5.225-1.348-11.758-4.027-16.949-8.012
	c6.498,5.303,7.756,10.574,9.018,17.158c-3.904-2.658-9.117-6.65-11.699-10.604c3.879,5.285,3.812,11.861,5.096,17.119
	c-5.225-2.656-11.73-7.959-18.248-11.957c6.498,5.309,9.055,13.211,8.982,21.104c-6.537-1.357-14.357-5.355-19.568-9.352
	c3.889,5.297,5.139,11.869,6.389,18.453c-6.541-1.371-14.346-6.678-20.865-10.658c5.188,5.293,7.75,11.883,6.375,19.754
	c-5.203-3.975-11.746-5.348-16.938-10.643c3.877,6.609,7.746,13.217,8.979,21.105c-6.498-3.986-13.023-7.98-20.873-9.35
	c3.859,6.586,7.729,14.521,7.656,22.396"/>
<path fill="#93278F" stroke="#000000" stroke-width="3" stroke-miterlimit="10" d="M116.092,201.827
	C19.336,224.319,40.631,72.8,54.479,20.882c1.471-4.412,2.254-11.308,3.383-16.962c-3.557,50.433,52.312,73.878,77.797,108.337
	c20.949,27.686,20.35,83.979-19.902,88.318"/>
<path fill="#93278F" stroke="#000000" stroke-width="3" stroke-miterlimit="10" d="M513.685,183.847
	c90.996,39.896,97.906-112.968,93.852-166.542C606.914,12.698,607.392,5.777,607.33,0c-5.771,50.248-65.018,63.026-96.396,92.205
	c-25.688,23.334-35.428,78.789,3.32,90.483"/>
<ellipse fill="#FFFFFF" stroke="#000000" stroke-width="3" stroke-miterlimit="10" cx="256.355" cy="231.155" rx="52.604" ry="93.539"/>
<ellipse fill="#FFFFFF" stroke="#000000" stroke-width="3" stroke-miterlimit="10" cx="361.083" cy="229.957" rx="52.604" ry="93.54"/>
<ellipse cx="258.322" cy="257.39" rx="22.387" ry="37.215"/>
<ellipse cx="362.322" cy="257.391" rx="22.387" ry="37.214"/>
<path fill="#999999" stroke="#000000" stroke-width="3" stroke-miterlimit="10" d="M422.197,446.44
	c-1.424,6.475-8.396,10.439-15.572,8.861l-232.812-51.23c-7.178-1.576-11.842-8.105-10.416-14.576L175,336.756
	c1.424-6.475,8.396-10.441,15.574-8.861l232.81,51.229c7.178,1.578,11.84,8.105,10.416,14.578L422.197,446.44z"/>
<path fill="#999999" stroke="#000000" stroke-width="3" stroke-miterlimit="10" d="M441.669,326.891
	c-2.217-6.725-9.678-10.512-16.664-8.463l-226.644,66.5c-6.986,2.049-10.855,9.162-8.639,15.885l18.059,54.785
	c2.217,6.723,9.676,10.512,16.664,8.463l226.646-66.498c6.986-2.051,10.854-9.162,8.637-15.887L441.669,326.891z"/>
<path fill="#29ABE2" stroke="#000000" stroke-width="3" stroke-miterlimit="10" d="M594.009,404.004"/>
<path fill="#148CCF" stroke="#000000" stroke-width="3" stroke-miterlimit="10" d="M54.494,556.258
	c-9.904,1.729-21.285,2.133-32.672,2.535c11.035,3.211,22.539,1.602,29.684-5.166c-12.531-4.531-30.129-7.002-44.506-9.232
	c8.186-0.633,18.068-2.355,26.348-4.193c-9.299-4.303-20.332-7.521-26.186-14.008c11.375-0.395,24.252,0.521,34.375-3.613
	c-5.855-6.488-16.775-10.906-24.348-16.299c7.928,1.771,15.986,2.352,24.037,2.924c-4.379-5.17-8.623-11.535-12.98-16.691
	c9.418,3.078,21.959,7.621,33.342,7.209c0.816-8.418-3.307-16.006-5.709-24.672c4.232,6.369,12.055,9.35,16.422,14.516
	c7.125-6.771,8.064-16.42,10.496-24.73c2.758,5.047,8.842,9.119,11.725,12.959c5.514-6.885,9.678-16.299,19.91-21.637
	c2.643,6.254,6.885,12.629,12.855,17.896c7.021-5.57,12.68-13.654,14.98-20.779c-0.346,3.621,3.787,11.189,3.432,14.811
	c7.02-5.562,14.285-13.555,22.801-17.795c-2.078,4.699,0.551,10.951-1.52,15.662c5.287-4.486,13.816-8.732,20.379-9.473
	c-0.24,2.412,2.387,8.672,0.424,12.164c10.018-2.93,18.65-8.385,28.771-12.521c-1.955,3.502-2.652,10.736-4.611,14.248
	c5.289-4.494,12.207-8.855,20.484-10.689c0.902,7.346-4.629,14.227-10.154,21.117c8.402-3.033,16.686-4.877,26.463-5.4
	c-12.443,11.26-3.373,17.969,12.967,16.707c-4.947,0.844-10.369,6.533-15.426,8.611c6.209,2.865,12.295,6.938,20.229,8.715
	c-1.623-0.115-4.951,0.859-6.553,0.75c12.287,6.936,16.193,16.924-3.258,16.76c4.6,2.746,12.18,8.146,18.393,11.002
	c-3.105-1.416-9.664-0.684-14.371-2.213c7.574,5.385,15.158,10.773,21.012,17.254c-8.051-0.568-17.713-1.256-25.637-3.041
	c4.48,3.971,7.111,10.221,11.582,14.18c-6.312-1.656-12.865-0.914-19.076-3.771c-0.227,2.4,0.914,7.34,2.164,11.064
	c-2.873-3.84-9.197-5.496-12.17-8.145c-0.354,3.621-3.922,7.002-4.164,9.422c-3.088-1.438-10.918-4.426-13.891-7.068
	c1.256,3.73-0.699,7.232-0.939,9.645c-4.598-2.75-12.523-4.527-16.893-9.688c2.869,3.848,2.287,9.867,3.553,13.604
	c-4.479-3.957-14.029-5.852-18.615-8.607c-2.902,13.141-19.473,16.816-19.555,1.037c-0.355,3.619-2.311,7.113-2.543,9.539
	c-2.766-5.059-10.334-10.455-11.605-14.178c-2.066,4.703-7.25,7.98-9.334,12.688c-1.252-3.742-7.227-9.016-8.605-11.541
	c-2.312,7.115-6.107,12.91-14.627,17.168c0.352-3.613-5.512-10.104-6.758-13.834c-2.084,4.715-10.488,7.75-12.453,11.248
	c0.361-3.611-0.896-7.338-0.543-10.949c-5.189,3.266-13.592,6.309-18.764,9.578c0.236-2.398-2.527-7.455-2.398-8.668
	c-5.07,2.084-13.232,2.705-16.678,4.895c1.832-2.305,3.799-5.803,5.639-8.09c-4.939,0.854-12.992,0.283-16.33,1.258
	c3.461-2.174,5.42-5.682,8.865-7.863c-11.621,2.816-21.869,8.158-33.25,8.57c5.414-5.697,10.717-10.172,19.227-14.422
	c-8.393,3.043-16.684,4.885-24.961,6.713c3.678-4.58,10.475-7.74,18.762-9.578"/>
<path fill="#148CCF" stroke="#000000" stroke-width="3" stroke-miterlimit="10" d="M568.328,552.317
	c10.258,1.174,21.967,0.971,33.678,0.762c-11.129,3.736-23.031,2.756-30.764-3.508c12.58-5.094,30.494-8.445,45.115-11.391
	c-8.418-0.184-18.68-1.355-27.277-2.73c9.289-4.697,20.418-8.43,26.043-15.098c-11.723,0.201-24.881,1.775-35.516-1.744
	c5.609-6.672,16.559-11.576,24.02-17.26c-8.02,2.166-16.258,3.139-24.471,4.129c4.148-5.305,8.139-11.766,12.297-17.064
	c-9.492,3.549-22.072,8.639-33.781,8.848c-1.346-8.23,2.439-15.877,4.387-24.492c-3.979,6.463-11.824,9.803-15.986,15.092
	c-7.73-6.27-9.27-15.674-12.25-23.703c-2.523,5.1-8.523,9.4-11.244,13.322c-6.086-6.459-10.912-15.479-21.742-20.166
	c-2.34,6.266-6.309,12.738-12.117,18.23c-7.547-5.096-13.836-12.736-16.609-19.592c0.568,3.525-3.217,11.164-2.646,14.699
	c-7.547-5.094-15.463-12.531-24.459-16.266c2.418,4.512,0.072,10.775,2.496,15.279c-5.701-4.092-14.691-7.818-21.477-8.203
	c0.391,2.352-1.934,8.625,0.279,11.951c-10.438-2.346-19.633-7.238-30.268-10.764c2.215,3.32,3.367,10.375,5.58,13.703
	c-5.697-4.102-13.055-8.02-21.654-9.389c-0.484,7.25,5.594,13.713,11.68,20.188c-8.795-2.553-17.396-3.922-27.475-3.91
	c13.439,10.377,4.516,17.428-12.312,17.057c5.131,0.584,11.021,5.863,16.346,7.633c-6.203,3.137-12.213,7.443-20.234,9.607
	c1.646-0.195,5.129,0.582,6.764,0.379c-12.203,7.469-15.59,17.449,4.332,16.273c-4.559,2.938-12.01,8.629-18.213,11.758
	c3.107-1.562,9.881-1.174,14.625-2.939c-7.465,5.689-14.914,11.367-20.537,18.045c8.229-0.99,18.098-2.17,26.131-4.334
	c-4.357,4.119-6.691,10.4-11.059,14.514c6.389-1.961,13.162-1.578,19.367-4.711c0.387,2.357-0.496,7.252-1.559,10.977
	c2.705-3.924,9.096-5.883,12-8.629c0.59,3.525,4.438,6.656,4.824,9.016c3.107-1.578,10.943-4.912,13.857-7.65
	c-1.076,3.725,1.141,7.053,1.516,9.404c4.572-2.945,12.596-5.104,16.775-10.408c-2.721,3.932-1.764,9.811-2.828,13.535
	c4.344-4.121,14.029-6.479,18.592-9.422c3.752,12.73,20.965,15.479,20.127-0.008c0.57,3.523,2.797,6.854,3.184,9.213
	c2.518-5.1,9.979-10.781,11.043-14.508c2.41,4.506,7.924,7.445,10.344,11.949c1.076-3.732,6.883-9.219,8.139-11.76
	c2.809,6.854,7.043,12.344,16.043,16.059c-0.582-3.525,5.041-10.188,6.105-13.906c2.432,4.496,11.227,7.049,13.438,10.369
	c-0.578-3.52,0.496-7.242-0.072-10.77c5.518,2.924,14.312,5.479,19.814,8.4c-0.379-2.344,2.129-7.449,1.945-8.617
	c5.334,1.76,13.74,1.961,17.43,3.916c-2.033-2.154-4.258-5.488-6.291-7.645c5.131,0.582,13.348-0.395,16.842,0.389
	c-3.68-1.957-5.896-5.293-9.57-7.248c12.096,2.148,22.924,6.854,34.621,6.65c-5.881-5.291-11.59-9.408-20.578-13.129
	c8.793,2.555,17.404,3.914,26.02,5.275c-4.055-4.299-11.215-7.049-19.814-8.408"/>
</svg>
