<?xml version="1.0" encoding="utf-8"?>
<!-- Generator: Adobe Illustrator 16.0.0, SVG Export Plug-In . SVG Version: 6.00 Build 0)  -->
<!DOCTYPE svg PUBLIC "-//W3C//DTD SVG 1.1//EN" "http://www.w3.org/Graphics/SVG/1.1/DTD/svg11.dtd">
<svg version="1.1" id="Laag_1" xmlns="http://www.w3.org/2000/svg" xmlns:xlink="http://www.w3.org/1999/xlink" x="0px" y="0px"
	 width="906.55px" height="1001.271px" viewBox="0 0 906.55 1001.271" enable-background="new 0 0 906.55 1001.271"
	 xml:space="preserve">
<g>
	<polygon fill="#FFFFFF" stroke="#000000" stroke-width="3" stroke-miterlimit="10" points="268.914,724.987 260.984,738.726 
		250.637,723.591 240.423,708.532 258.634,709.894 276.851,711.249 	"/>
	<polygon fill="#FFFFFF" stroke="#000000" stroke-width="3" stroke-miterlimit="10" points="253.365,752.3 244.982,765.769 
		235.146,750.304 225.429,734.917 243.588,736.878 261.751,738.829 	"/>
	<polygon fill="#FFFFFF" stroke="#000000" stroke-width="3" stroke-miterlimit="10" points="235.169,778.159 224.966,790.306 
		217.417,773.601 209.977,756.993 227.672,761.505 245.378,766.011 	"/>
	<polygon fill="#FFFFFF" stroke="#000000" stroke-width="3" stroke-miterlimit="10" points="216.288,799.815 205.533,811.481 
		198.765,794.442 192.098,777.511 209.569,782.837 227.048,788.151 	"/>
	<polygon fill="#FFFFFF" stroke="#000000" stroke-width="3" stroke-miterlimit="10" points="144.332,595.407 159.638,599.575 
		147.642,613.437 135.685,627.153 132.356,609.196 129.021,591.237 	"/>
	<polygon fill="#FFFFFF" stroke="#000000" stroke-width="3" stroke-miterlimit="10" points="175.37,605.97 189.933,612.263 
		176.092,624.286 162.312,636.171 161.563,617.925 160.807,599.675 	"/>
	<polygon fill="#FFFFFF" stroke="#000000" stroke-width="3" stroke-miterlimit="10" points="204.295,618.267 218.64,625.036 
		204.412,636.593 190.246,648.019 190.102,629.759 189.947,611.487 	"/>
	<polygon fill="#FFFFFF" stroke="#000000" stroke-width="3" stroke-miterlimit="10" points="232.077,633.356 245.321,642.091 
		229.601,651.515 213.962,660.821 216.401,642.724 218.834,624.616 	"/>
	<polygon fill="#FFFFFF" stroke="#000000" stroke-width="3" stroke-miterlimit="10" points="255.767,649.616 268.595,658.952 
		252.454,667.642 236.402,676.216 239.677,658.249 242.94,640.272 	"/>
	<path fill="#FFFFFF" stroke="#000000" stroke-width="3" stroke-linecap="round" stroke-miterlimit="10" d="M163.167,759.567
		c-1.469,3.334-5.865,8.367-2.114,32.729c3.75,24.361,25.056,41.68,25.056,41.68s42.157-19.953,32.999-20.969
		C179.092,808.565,163.167,759.567,163.167,759.567"/>
	<path fill="#FFFFFF" stroke="#000000" stroke-width="3" stroke-linecap="round" stroke-miterlimit="10" d="M100.232,669.104
		c-2.519-2.844-8.385-6.227-13.117-33.137c-4.731-26.912,9.516-53.916,9.516-53.916s46.611,2.941,38.303,7.863
		C98.635,611.431,100.232,669.104,100.232,669.104"/>
</g>
<path fill="#93278F" stroke="#000000" stroke-width="3" stroke-miterlimit="10" d="M345.058,316.809
	c-152.266-9.292-54.527-222.978-11.393-293.323c4.094-5.852,8.268-15.66,12.408-23.486c-27.332,72.672,44.623,131.66,67.031,193.548
	c18.703,49.926-6.85,132.523-67.998,121.274"/>
<path fill="#29ABE2" stroke="#000000" stroke-width="3" stroke-miterlimit="10" d="M695.417,219.455
	c-0.414-1.639,3.268-2.615,2.836-4.263L695.417,219.455c-3.451,4.393-4.729,8.266-5.582,13.736
	c12.895-3.357,24.504-11.66,36.154-19.957c-8.193,12.659-20.678,26.438-17.682,37.951c14.213-7.225,25.404-17.164,36.592-27.117
	c-6.033,12.105-14.213,24.764-13.348,36.814c13.328-1.723,27.527-8.943,37.008-16.684c-6.451,10.455-12.5,22.577-9.477,34.073
	c8.588-2.263,20.205-1.784,27.959-7.322c-10.307,13.231-22.83,27.029-23.242,42.927c15.904-0.64,31.832-10.074,46.029-17.297
	c-9.014,9.38-15.916,18.19-17.646,29.178c12.061-6.661,26.693-12.235,40.039-13.97c-12.498,13.791-30.166,25.42-32.738,41.891
	c11.188-1.171,24.111-4.547,36.57-9.565c-9.033,9.382-20.654,17.679-27.973,24.864c11.195-1.176,24.961-1.266,33.994,6.891
	c-9.027,9.387-21.102,16.054-30.133,25.427c11.605,0.481,29.25-2.376,43.443-0.826c-10.752,2.804-20.229,10.561-27.949,16.075
	c12.023,2.13,26.232,3.678,36.961,9.642c-10.734,2.806-20.645,8.91-28.387,14.435c9.895,2.677,21.943,4.793,33.562,5.279
	c-15.486,2.281-30.57,6.233-37.012,16.687c14.182,1.562,26.652,5.297,39.574,10.705c-12.912,3.375-24.967,10.045-31.855,18.853
	c11.166,7.613,26.246,12.458,39.135,17.842c-10.734,2.805-25.369,8.4-32.271,17.211c12.906,5.4,24.943,7.512,39.588,10.717
	c-9.041,0.607-40.016,5.186-42.184,14.523c-2.146,9.35,30.549,11.309,40.01,12.354c-12.479,5.021-24.967,10.033-32.271,17.213
	c14.18,1.537,27.959,1.459,41.721,1.373c-15.488,2.291-30.125,7.867-38.732,18.9c10.773,5.959,26.676,5.309,41.307,8.488
	c-15.916,0.67-35.291,5.719-46.479,15.67c11.619,0.475,27.971,1.471,38.297,5.771c-10.33,4.467-25.396,8.408-36.164,11.217
	c7.742,12,27.969,10.234,42.598,13.422c-17.646,2.869-35.709,4.074-52.084,11.869c9.057-0.623,24.541-2.912,36.592-0.799
	c-12.041,6.668-28.396,5.664-42.613,12.889c11.621,0.49,21.93,4.809,31.84,7.473c-13.342,1.736-31.426,2.961-44.332,6.322
	c5.604,3.816,12.029,10.904,21.953,13.57c-4.734-0.518-9.477-1.029-14.211-1.547c3.863,5.99,7.311,10.371,15.057,13.604
	c-6.021-5.439-37.441-11.262-45.633,1.4c-6.438,10.453,23.656,28.924,29.68,34.357c-8.604-6.518-15.053-4.846-24.508-5.889
	c5.154,2.176,15.9,8.143,23.23,9.734c-13.346,1.729-26.703,3.451-37.451,6.273c5.178,10.928,24.516,14.652,33.566,22.814
	c-17.229,4.496-34.871-1.416-52.082,3.074c7.75,3.246,18.51,9.211,27.949,10.232c-35.283-3.043-45.611,18.947-18.5,34.674
	c-8.197-4.877-22.396-6.424-35.293-3.066c7.734,3.246,11.602,9.25,19.352,12.504c-9.895-2.678-18.484-0.428-27.539,0.17
	c3.863,6.025,3.439,13.146,9.461,18.594c-31.418-5.834-47.342,3.604-23.25,25.365c-7.764-3.229-16.801-2.613-24.971-7.506
	c-0.438,7.131-7.324,15.951-8.613,19.801c-1.709-6.564-8.6-15.297-12.467-21.312c-9.043,9.387-13.354,19.281-15.082,30.275
	c0.857-5.496-0.43-10.43-1.715-15.352c-15.059,12.711-23.689,32.502-31.418,46.816c-7.324-10.365-6.449-24.633-4.719-35.621
	c-15.957,9.445-25.846,24.314-33.584,38.617c3.016-6.055,0.859-14.252,1.703-19.748c-14.188,7.221-22.381,19.877-33.555,29.83
	c-0.008-8.77-0.424-19.186,1.727-28.523c-4.326,9.896-13.771,17.639-25.857,24.291c2.6-7.689-0.816-12.061,4.332-18.662
	c-7.291,7.184-14.629,14.344-21.963,21.525c1.291-3.848,0.004-8.783,1.311-12.619c-7.336,7.174-16.797,14.914-27.129,19.379
	c-2.156-8.213-0.426-19.197,2.176-26.889c-14.203,7.209-23.264,16.6-36.17,19.982c3.018-6.055,5.611-13.754,13.367-19.291
	c-13.795,8.875-32.721,15.566-48.658,16.236c5.191-6.623,9.502-16.525,17.225-22.059c-7.723,5.531-14.199,7.225-24.084,13.322
	c4.309-9.916,12.902-20.936,12.928-29.693c-17.648,2.844-31.438,20.484-47.35,29.906c5.164-6.602,5.59-13.736,10.748-20.342
	c-11.623,8.295-24.959,18.797-42.172,23.291c2.164-9.324,8.617-19.793,15.924-26.963c-9.029,9.387-18.512,17.113-30.984,22.135
	c0.426-7.119,2.588-16.471,7.33-24.715c-6.451,10.457-14.643,14.344-24.971,18.812c3.02-6.055,7.771-14.318,13.352-19.291
	c-7.318,7.172-18.082,9.982-26.24,13.891c2.566-7.697,9.018-18.162,13.342-28.07c-6.465,10.461-18.506,17.127-31.434,20.5
	c0.006-8.77,3.881-20.305,8.639-28.572c-7.338,7.186-17.652,11.639-27.984,16.094c0.021-8.783,6.037-20.873,10.33-30.775
	c-6.884,8.811-16.783,14.908-30.108,16.646c4.725-8.25,4.745-17.037,11.632-25.859c-9.481,7.752-18.957,15.494-31.435,20.498
	c4.312-9.877,8.618-19.791,8.188-30.205c-9.448,7.721-21.103,16.043-33.994,19.412c4.741-8.242,6.888-17.6,11.632-25.842
	c-6.889,8.816-18.093,18.773-27.986,24.859c6.031-12.111,10.341-22.006,13.777-35.189c-2.143,0.555-49.613,22.6-53.936,23.705
	c93.92-75.215,140.609-175.775,136.08-190.541c-3.707-12.084-126.633-114.141-261.143-93.131
	c-4.625,0.721,10.033-13.439,22.26-27.297c11.505-13.035,15.326-9.701,4.985-6.312c-105.68,34.631,37.496-19.912-4.069-21.717
	c-62.45-2.707-44.402-0.447-15.186-15.115c28.26-14.187-26.714-18.354-20.788-22.843c13.273-10.042,45.37-2.146,32.368-14.166
	c-14.127-13.063-31.244-11.087-31.753-16.174c-0.441-4.397,12.063-5.573,23.831-6.565c12.435-1.049,24.044-1.895,18.69-6.122
	c-41.277-32.592-18.369-20.216,2.812-15.939c8.593,1.729,8.367-9.859,2.831-11.444c-88.759-25.425,13.734-3.83,4.112-13.343
	c-7.752-7.664-16.02-14.071-18.032-12.972c-3.674,2.01,31.958,5.733,23.822-7.006c-52.681-82.492,0.407,0.66,13.743-24.532
	c4.581-8.654-15.803-45.091-17.794-54.476c-2.781-13.11,27.925,27.482,33.839,16.298c3.005,11.499-13.549-52.085-7.917-46.143
	c11.912,8.939,28.728,39.116,32.931,29.906c4.197-9.21-13.499-46.693-10.062-55.488c0.868,3.271,21.129,35.258,22,38.541
	c-1.408-9.534-0.626-20.422,1.046-31.225c1.885-12.152,4.892-24.194,7.178-34.078c3.539,16.836,9.263,23.48,15.396,23.356
	c10.228-0.211,8.219-16.133,12.532-38.097c1.284,4.933,16.947,20.377,15.527,13.895c1.312-12.621,4.754-25.806,15.521-37.383
	c1.286,13.703-2.173,26.888,7.295,36.678c16.348-7.764,21.527-23.156,31.864-36.39c0.427,10.417-1.305,21.392,2.996,29.039
	c13.768-8.868,23.668-23.729,34.025-36.958c-0.443,7.125,3.842,14.776,4.703,18.059c7.326-7.185,14.242-16.009,20.662-26.45
	c-0.424,7.123,3.893,14.77,3.453,21.906c15.492-11.062,22.834-27.019,32.715-41.9c-2.578,7.698,2.152,16.994,1.283,22.482
	c11.205-9.952,22.393-19.893,33.562-29.829c-4.734,25.805,16.373,27.308,33.145,3.607c-0.854,5.496,3.025,11.509,1.734,15.347
	c7.314-7.185,15.916-18.194,23.686-23.733c-0.441,7.134-0.01,17.554-0.447,24.688c14.217-7.225,23.668-23.729,34.867-33.698
	c-0.002,8.784-1.734,19.756-1.736,28.538c12.475-5.007,23.229-16.607,30.146-25.433c-0.873,5.501-3.021,14.825-6.039,20.886
	c7.318-7.184,15.914-9.42,23.23-16.604c-3.018,6.051-3.441,13.172-6.455,19.237c9.02-0.615,1.723-2.204,7.312,1.595
	c5.578-4.979,11.621-8.291,16.799-14.934c-6.471,10.468-6.043,20.885-1.738,28.536c14.197-7.21,25.391-17.164,40.006-22.735
	c-3.857,11.533-9.037,26.924-1.715,37.289c11.607-8.3,24.959-18.809,41.316-26.599c-24.105,30.879,9.021,34.5,37.004,18.418
	c-4.326,9.892-8.617,19.791-8.217,30.201c15.078-3.929,29.281-11.153,38.742-18.9c-5.154,6.628-7.738,14.315-12.902,20.921
	c12.043-6.642,21.092-16.017,30.555-23.769C683.396,199.8,706.623,209.51,695.417,219.455"/>
<path fill="#148CCF" stroke="#000000" stroke-width="2" stroke-miterlimit="10" d="M591.789,964.825
	c12.936,1.062,27.857,0.717,42.791,0.359c-14.551,3.93-29.604,3.078-38.803-3.176c16.537-5.324,39.686-8.941,58.6-12.105
	c-10.695-0.088-23.635-1.15-34.439-2.439c12.309-4.881,26.855-8.801,34.695-15.633c-14.939,0.35-31.854,2.109-45.027-1.334
	c7.83-6.834,22.266-11.941,32.346-17.799c-10.432,2.291-21.016,3.381-31.57,4.49c5.822-5.438,11.564-12.041,17.408-17.463
	c-12.455,3.715-28.982,9.025-43.908,9.385c-0.875-8.33,4.729-16.133,8.092-24.898c-5.727,6.605-16.061,10.096-21.9,15.502
	c-9.191-6.262-10.188-15.781-13.158-23.887c-3.74,5.197-11.812,9.635-15.68,13.65c-7.088-6.482-12.305-15.566-25.605-20.189
	c-3.627,6.383-9.34,12.998-17.299,18.643c-9.084-5.078-16.305-12.754-19.133-19.676c0.361,3.572-5.234,11.367-4.875,14.945
	c-9.084-5.074-18.398-12.52-29.469-16.203c2.615,4.547-1.01,10.936,1.611,15.471c-6.836-4.08-17.898-7.754-26.492-8.059
	c0.252,2.379-3.354,8.773-0.875,12.119c-13.049-2.252-24.246-7.104-37.418-10.551c2.479,3.344,3.215,10.484,5.695,13.836
	c-6.83-4.09-15.791-7.979-26.6-9.26c-1.359,7.359,5.711,13.84,12.787,20.334c-10.926-2.484-21.738-3.771-34.57-3.633
	c16.051,10.359,3.969,17.615-17.414,17.449c6.469,0.527,13.428,5.816,20.023,7.541c-8.219,3.256-16.314,7.703-26.748,9.992
	c2.115-0.217,6.469,0.529,8.568,0.299c-16.297,7.73-21.631,17.896,3.85,16.457c-6.104,3.035-16.178,8.898-24.389,12.146
	c4.117-1.629,12.699-1.311,18.916-3.16c-10.088,5.861-20.152,11.711-27.996,18.551c10.572-1.1,23.254-2.42,33.703-4.715
	c-5.971,4.232-9.58,10.633-15.559,14.859c8.33-2.068,16.91-1.762,25.133-5.018c0.246,2.385-1.377,7.363-3.111,11.152
	c3.852-4.012,12.182-6.08,16.16-8.9c0.391,3.57,4.969,6.701,5.223,9.088c4.117-1.641,14.438-5.119,18.428-7.934
	c-1.752,3.795,0.725,7.141,0.963,9.521c6.119-3.043,16.547-5.33,22.422-10.76c-3.869,4.021-3.254,9.971-4.992,13.76
	c5.955-4.23,18.525-6.738,24.633-9.779c3.469,12.869,25.098,15.439,25.623-0.256c0.363,3.566,2.852,6.918,3.104,9.307
	c3.725-5.201,13.811-11.061,15.545-14.85c2.604,4.541,9.324,7.459,11.941,11.996c1.75-3.803,9.705-9.436,11.562-12.027
	c2.869,6.918,7.697,12.43,18.775,16.09c-0.375-3.572,7.461-10.395,9.201-14.182c2.627,4.535,13.562,7.016,16.043,10.357
	c-0.377-3.562,1.373-7.352,1.008-10.922c6.723,2.895,17.654,5.379,24.365,8.273c-0.242-2.371,3.475-7.578,3.355-8.762
	c6.609,1.719,17.293,1.818,21.789,3.754c-2.365-2.156-4.859-5.514-7.225-7.668c6.465,0.521,17.025-0.562,21.389,0.184
	c-4.479-1.938-6.951-5.295-11.434-7.232c15.178,2.029,28.475,6.676,43.389,6.326c-6.949-5.297-13.789-9.4-24.85-13.062
	c10.934,2.479,21.76,3.756,32.578,5.029c-4.721-4.312-13.549-7.014-24.359-8.293"/>
<path fill="#FFFFFF" stroke="#000000" stroke-width="3" stroke-miterlimit="10" d="M142.928,426.215
	c17.933,58.464,76.682,121.553,166.07,65.493c70.539-44.235,95.803-118.622,100.793-147.333L142.928,426.215z"/>
<path d="M281.517,447.486c5.264,32.135-2.363,60.14-17.055,62.546c-14.691,2.396-30.855-21.706-36.125-53.833
	c-5.272-32.146,2.354-60.162,17.051-62.57C260.063,391.223,276.242,415.326,281.517,447.486z"/>
<path fill="#93278F" stroke="#000000" stroke-width="3" stroke-miterlimit="10" d="M523.271,319.662
	c137.561,66.029,156.215-168.228,152.811-250.667c-0.717-7.104,0.387-17.701,0.594-26.57
	c-11.504,76.816-103.105,93.309-152.805,136.439c-40.654,34.46-58.521,119.058,0.332,139.048"/>
</svg>
