<?xml version="1.0" encoding="utf-8"?>
<!-- Generator: Adobe Illustrator 16.0.0, SVG Export Plug-In . SVG Version: 6.00 Build 0)  -->
<!DOCTYPE svg PUBLIC "-//W3C//DTD SVG 1.1//EN" "http://www.w3.org/Graphics/SVG/1.1/DTD/svg11.dtd">
<svg version="1.1" id="Laag_1" xmlns="http://www.w3.org/2000/svg" xmlns:xlink="http://www.w3.org/1999/xlink" x="0px" y="0px"
	 width="906.55px" height="1001.271px" viewBox="183.051 54.437 906.55 1001.271"
	 enable-background="new 183.051 54.437 906.55 1001.271" xml:space="preserve">
<g>
	<polygon fill="#FFFFFF" stroke="#000000" stroke-width="3" stroke-miterlimit="10" points="450.229,780.125 442.299,793.864 
		431.951,778.729 421.737,763.671 439.948,765.032 458.165,766.387 	"/>
	<polygon fill="#FFFFFF" stroke="#000000" stroke-width="3" stroke-miterlimit="10" points="434.68,807.438 426.297,820.907 
		416.46,805.441 406.743,790.055 424.902,792.017 443.065,793.968 	"/>
	<polygon fill="#FFFFFF" stroke="#000000" stroke-width="3" stroke-miterlimit="10" points="416.483,833.297 406.28,845.444 
		398.731,828.739 391.291,812.131 408.986,816.644 426.692,821.149 	"/>
	<polygon fill="#FFFFFF" stroke="#000000" stroke-width="3" stroke-miterlimit="10" points="397.603,854.953 386.848,866.619 
		380.079,849.581 373.412,832.648 390.884,837.975 408.362,843.289 	"/>
	<polygon fill="#FFFFFF" stroke="#000000" stroke-width="3" stroke-miterlimit="10" points="325.646,650.545 340.952,654.714 
		328.956,668.575 316.999,682.291 313.671,664.334 310.336,646.376 	"/>
	<polygon fill="#FFFFFF" stroke="#000000" stroke-width="3" stroke-miterlimit="10" points="356.685,661.107 371.247,667.401 
		357.406,679.425 343.626,691.31 342.878,673.062 342.121,654.812 	"/>
	<polygon fill="#FFFFFF" stroke="#000000" stroke-width="3" stroke-miterlimit="10" points="385.609,673.404 399.954,680.175 
		385.727,691.73 371.561,703.156 371.416,684.896 371.262,666.626 	"/>
	<polygon fill="#FFFFFF" stroke="#000000" stroke-width="3" stroke-miterlimit="10" points="413.392,688.495 426.636,697.229 
		410.915,706.653 395.276,715.959 397.716,697.861 400.148,679.755 	"/>
	<polygon fill="#FFFFFF" stroke="#000000" stroke-width="3" stroke-miterlimit="10" points="437.081,704.755 449.909,714.09 
		433.769,722.78 417.717,731.354 420.991,713.387 424.255,695.411 	"/>
	<path fill="#FFFFFF" stroke="#000000" stroke-width="3" stroke-linecap="round" stroke-miterlimit="10" d="M344.481,814.706
		c-1.468,3.333-5.865,8.367-2.114,32.729c3.75,24.36,25.056,41.679,25.056,41.679s42.157-19.953,32.999-20.97
		C360.406,863.704,344.481,814.706,344.481,814.706"/>
	<path fill="#FFFFFF" stroke="#000000" stroke-width="3" stroke-linecap="round" stroke-miterlimit="10" d="M281.547,724.243
		c-2.519-2.845-8.385-6.226-13.117-33.138c-4.731-26.912,9.516-53.916,9.516-53.916s46.611,2.943,38.303,7.865
		C279.949,666.569,281.547,724.243,281.547,724.243"/>
</g>
<path fill="#93278F" stroke="#000000" stroke-width="3" stroke-miterlimit="10" d="M526.373,371.947
	c-152.267-9.292-54.528-222.978-11.393-293.323c4.093-5.852,8.267-15.66,12.408-23.486c-27.331,72.672,44.624,131.66,67.032,193.548
	c18.702,49.926-6.85,132.523-67.998,121.274"/>
<path fill="#29ABE2" stroke="#000000" stroke-width="3" stroke-miterlimit="10" d="M876.731,274.593
	c-0.414-1.639,3.269-2.615,2.837-4.263L876.731,274.593c-3.45,4.393-4.727,8.266-5.582,13.736
	c12.896-3.357,24.505-11.66,36.156-19.957c-8.194,12.659-20.678,26.438-17.682,37.951c14.213-7.225,25.404-17.164,36.591-27.117
	c-6.032,12.105-14.212,24.764-13.348,36.814c13.329-1.723,27.529-8.943,37.009-16.684c-6.452,10.455-12.5,22.577-9.477,34.073
	c8.588-2.263,20.206-1.784,27.959-7.322c-10.306,13.231-22.83,27.029-23.243,42.927c15.906-0.64,31.832-10.074,46.031-17.297
	c-9.014,9.38-15.916,18.19-17.647,29.178c12.06-6.661,26.693-12.235,40.039-13.97c-12.498,13.791-30.166,25.42-32.738,41.891
	c11.187-1.171,24.111-4.547,36.57-9.565c-9.034,9.382-20.654,17.679-27.974,24.864c11.197-1.176,24.962-1.265,33.995,6.891
	c-9.028,9.387-21.102,16.054-30.132,25.427c11.604,0.481,29.25-2.376,43.443-0.827c-10.752,2.804-20.229,10.561-27.95,16.076
	c12.023,2.13,26.232,3.677,36.962,9.641c-10.734,2.806-20.646,8.91-28.387,14.435c9.894,2.677,21.943,4.793,33.563,5.279
	c-15.488,2.281-30.572,6.234-37.012,16.687c14.182,1.562,26.652,5.297,39.573,10.705c-12.912,3.375-24.967,10.045-31.855,18.852
	c11.167,7.613,26.246,12.457,39.134,17.842c-10.734,2.806-25.368,8.4-32.271,17.211c12.906,5.401,24.943,7.513,39.589,10.718
	c-9.041,0.606-40.017,5.185-42.185,14.523c-2.146,9.349,30.55,11.309,40.01,12.353c-12.478,5.021-24.967,10.034-32.271,17.214
	c14.18,1.537,27.959,1.458,41.721,1.372c-15.488,2.291-30.125,7.868-38.733,18.901c10.774,5.959,26.677,5.308,41.308,8.488
	c-15.916,0.67-35.291,5.718-46.479,15.67c11.618,0.475,27.971,1.47,38.296,5.771c-10.33,4.468-25.396,8.408-36.164,11.217
	c7.743,12,27.97,10.234,42.597,13.422c-17.645,2.869-35.709,4.074-52.084,11.869c9.057-0.622,24.541-2.912,36.593-0.798
	c-12.041,6.667-28.397,5.663-42.613,12.888c11.62,0.491,21.93,4.809,31.839,7.472c-13.341,1.736-31.425,2.962-44.332,6.323
	c5.604,3.817,12.029,10.905,21.954,13.57c-4.736-0.518-9.477-1.029-14.211-1.546c3.863,5.989,7.31,10.37,15.057,13.602
	c-6.023-5.439-37.442-11.26-45.634,1.401c-6.437,10.453,23.657,28.924,29.68,34.357c-8.603-6.517-15.053-4.846-24.507-5.889
	c5.154,2.176,15.899,8.143,23.229,9.735c-13.346,1.728-26.702,3.452-37.45,6.273c5.177,10.929,24.516,14.653,33.566,22.815
	c-17.229,4.496-34.871-1.416-52.082,3.074c7.75,3.246,18.509,9.211,27.949,10.232c-35.283-3.043-45.611,18.949-18.5,34.674
	c-8.197-4.877-22.397-6.423-35.292-3.065c7.734,3.246,11.6,9.249,19.35,12.504c-9.893-2.679-18.484-0.429-27.539,0.17
	c3.864,6.025,3.44,13.146,9.462,18.592c-31.419-5.833-47.342,3.604-23.25,25.367c-7.764-3.229-16.801-2.615-24.971-7.506
	c-0.438,7.131-7.325,15.95-8.614,19.8c-1.709-6.564-8.6-15.296-12.466-21.312c-9.043,9.387-13.354,19.28-15.082,30.274
	c0.858-5.496-0.43-10.428-1.716-15.35c-15.058,12.711-23.688,32.502-31.418,46.816c-7.323-10.365-6.448-24.633-4.717-35.621
	c-15.957,9.445-25.846,24.314-33.584,38.617c3.015-6.054,0.858-14.252,1.702-19.748c-14.187,7.221-22.38,19.877-33.555,29.829
	c-0.007-8.769-0.423-19.184,1.727-28.522c-4.327,9.895-13.771,17.639-25.857,24.29c2.6-7.689-0.816-12.06,4.331-18.661
	c-7.291,7.182-14.629,14.343-21.963,21.525c1.291-3.847,0.004-8.783,1.311-12.619c-7.336,7.173-16.797,14.914-27.129,19.379
	c-2.155-8.213-0.425-19.198,2.177-26.89c-14.204,7.21-23.264,16.601-36.17,19.984c3.016-6.055,5.611-13.755,13.366-19.291
	c-13.795,8.875-32.72,15.565-48.657,16.236c5.191-6.624,9.502-16.526,17.224-22.06c-7.722,5.532-14.2,7.225-24.084,13.323
	c4.309-9.916,12.903-20.935,12.927-29.694c-17.648,2.844-31.436,20.486-47.349,29.907c5.164-6.602,5.59-13.736,10.748-20.341
	c-11.623,8.295-24.959,18.796-42.171,23.291c2.164-9.324,8.616-19.794,15.923-26.963c-9.029,9.387-18.511,17.112-30.985,22.134
	c0.427-7.119,2.588-16.47,7.33-24.715c-6.45,10.458-14.642,14.345-24.969,18.813c3.019-6.055,7.771-14.319,13.351-19.291
	c-7.318,7.171-18.082,9.982-26.241,13.891c2.566-7.698,9.018-18.163,13.343-28.07c-6.466,10.461-18.507,17.126-31.434,20.499
	c0.006-8.77,3.881-20.305,8.638-28.573c-7.338,7.187-17.652,11.639-27.984,16.095c0.021-8.783,6.036-20.874,10.33-30.776
	c-6.884,8.811-16.783,14.909-30.108,16.646c4.725-8.249,4.745-17.037,11.632-25.858c-9.482,7.752-18.957,15.493-31.435,20.498
	c4.312-9.877,8.618-19.791,8.188-30.206c-9.448,7.721-21.103,16.043-33.994,19.413c4.741-8.242,6.887-17.6,11.632-25.843
	c-6.889,8.818-18.093,18.774-27.987,24.861c6.031-12.112,10.341-22.007,13.778-35.191c-2.143,0.555-49.614,22.6-53.936,23.705
	c93.92-75.215,140.609-175.775,136.08-190.54c-3.708-12.084-126.634-114.142-261.143-93.131c-4.625,0.721,10.033-13.44,22.26-27.297
	c11.505-13.036,15.326-9.701,4.985-6.312c-105.68,34.631,37.496-19.913-4.069-21.717c-62.45-2.708-44.402-0.448-15.186-15.116
	c28.26-14.187-26.714-18.354-20.788-22.843c13.273-10.042,45.37-2.146,32.368-14.166c-14.127-13.063-31.244-11.087-31.753-16.174
	c-0.441-4.397,12.063-5.573,23.831-6.565c12.435-1.049,24.044-1.895,18.69-6.122c-41.277-32.592-18.369-20.216,2.812-15.94
	c8.593,1.73,8.367-9.859,2.831-11.444c-88.759-25.425,13.734-3.83,4.112-13.343c-7.752-7.664-16.02-14.071-18.032-12.971
	c-3.674,2.009,31.958,5.733,23.822-7.006c-52.681-82.492,0.407,0.66,13.743-24.532c4.581-8.654-15.803-45.091-17.794-54.476
	c-2.781-13.11,27.925,27.482,33.839,16.298c3.005,11.499-13.549-52.085-7.917-46.143c11.912,8.939,28.728,39.116,32.931,29.906
	c4.197-9.21-13.499-46.693-10.062-55.488c0.868,3.271,21.129,35.258,22,38.541c-1.409-9.534-0.626-20.422,1.046-31.225
	c1.884-12.152,4.891-24.194,7.177-34.078c3.539,16.836,9.263,23.48,15.397,23.356c10.227-0.211,8.218-16.133,12.532-38.097
	c1.284,4.933,16.947,20.377,15.527,13.895c1.313-12.621,4.754-25.806,15.522-37.383c1.286,13.703-2.173,26.888,7.295,36.678
	c16.347-7.764,21.527-23.156,31.864-36.39c0.427,10.417-1.305,21.392,2.996,29.039c13.768-8.868,23.668-23.729,34.024-36.958
	c-0.442,7.125,3.842,14.776,4.705,18.059c7.325-7.185,14.241-16.009,20.662-26.45c-0.425,7.123,3.892,14.77,3.452,21.906
	c15.493-11.062,22.834-27.019,32.716-41.9c-2.579,7.698,2.152,16.994,1.282,22.482c11.205-9.952,22.393-19.893,33.562-29.829
	c-4.733,25.805,16.373,27.308,33.145,3.607c-0.854,5.496,3.025,11.509,1.734,15.347c7.315-7.185,15.916-18.194,23.687-23.733
	c-0.443,7.134-0.011,17.554-0.448,24.688c14.217-7.225,23.668-23.729,34.868-33.698c-0.002,8.784-1.736,19.756-1.738,28.538
	c12.476-5.007,23.229-16.607,30.147-25.433c-0.872,5.501-3.022,14.825-6.038,20.886c7.318-7.184,15.913-9.42,23.229-16.604
	c-3.017,6.051-3.441,13.172-6.455,19.237c9.021-0.615,1.724-2.204,7.313,1.595c5.579-4.979,11.622-8.291,16.8-14.934
	c-6.471,10.468-6.043,20.885-1.74,28.536c14.199-7.21,25.392-17.164,40.007-22.735c-3.858,11.533-9.038,26.924-1.716,37.289
	c11.608-8.3,24.96-18.809,41.317-26.599c-24.105,30.879,9.021,34.5,37.005,18.418c-4.327,9.892-8.618,19.791-8.218,30.201
	c15.079-3.929,29.282-11.153,38.743-18.9c-5.154,6.628-7.738,14.315-12.902,20.921c12.043-6.642,21.091-16.017,30.553-23.769
	C864.711,254.938,887.938,264.648,876.731,274.593"/>
<path fill="#148CCF" stroke="#000000" stroke-width="2" stroke-miterlimit="10" d="M773.104,1019.964
	c12.935,1.062,27.857,0.717,42.79,0.359c-14.551,3.93-29.604,3.077-38.803-3.177c16.538-5.323,39.686-8.94,58.599-12.104
	c-10.695-0.088-23.633-1.15-34.438-2.439c12.308-4.881,26.854-8.802,34.694-15.634c-14.938,0.35-31.852,2.109-45.026-1.334
	c7.829-6.834,22.265-11.942,32.346-17.799c-10.432,2.292-21.017,3.382-31.571,4.49c5.823-5.437,11.565-12.041,17.408-17.463
	c-12.455,3.715-28.983,9.026-43.909,9.385c-0.875-8.329,4.73-16.133,8.092-24.898c-5.726,6.606-16.06,10.096-21.9,15.503
	c-9.191-6.263-10.188-15.782-13.158-23.888c-3.74,5.197-11.812,9.636-15.679,13.65c-7.088-6.481-12.306-15.565-25.607-20.188
	c-3.626,6.382-9.338,12.997-17.298,18.641c-9.084-5.077-16.305-12.753-19.133-19.674c0.361,3.571-5.235,11.367-4.875,14.945
	c-9.083-5.075-18.399-12.521-29.469-16.203c2.616,4.547-1.01,10.935,1.612,15.47c-6.836-4.081-17.898-7.753-26.492-8.059
	c0.251,2.379-3.354,8.774-0.875,12.12c-13.049-2.252-24.247-7.104-37.418-10.551c2.478,3.344,3.215,10.484,5.695,13.836
	c-6.83-4.09-15.792-7.978-26.599-9.26c-1.36,7.359,5.711,13.84,12.787,20.333c-10.927-2.484-21.738-3.771-34.57-3.632
	c16.05,10.359,3.968,17.616-17.415,17.449c6.469,0.528,13.428,5.816,20.024,7.542c-8.22,3.255-16.314,7.702-26.748,9.992
	c2.114-0.217,6.468,0.529,8.568,0.299c-16.298,7.729-21.631,17.896,3.85,16.456c-6.105,3.036-16.178,8.898-24.39,12.147
	c4.117-1.628,12.699-1.31,18.917-3.16c-10.088,5.861-20.153,11.711-27.996,18.55c10.571-1.099,23.254-2.419,33.702-4.714
	c-5.969,4.232-9.579,10.632-15.558,14.86c8.331-2.069,16.911-1.763,25.134-5.018c0.246,2.385-1.378,7.363-3.113,11.152
	c3.853-4.011,12.182-6.08,16.161-8.901c0.391,3.57,4.969,6.701,5.222,9.089c4.117-1.642,14.438-5.119,18.428-7.934
	c-1.752,3.794,0.725,7.14,0.963,9.521c6.12-3.043,16.547-5.33,22.422-10.759c-3.87,4.021-3.253,9.97-4.993,13.759
	c5.955-4.23,18.526-6.738,24.634-9.779c3.468,12.869,25.097,15.44,25.622-0.255c0.364,3.566,2.853,6.918,3.104,9.306
	c3.725-5.202,13.81-11.061,15.545-14.85c2.604,4.542,9.324,7.459,11.942,11.996c1.749-3.802,9.705-9.436,11.562-12.027
	c2.869,6.918,7.698,12.43,18.776,16.09c-0.376-3.572,7.46-10.395,9.201-14.182c2.627,4.535,13.563,7.015,16.043,10.357
	c-0.378-3.562,1.372-7.352,1.008-10.922c6.722,2.896,17.654,5.379,24.364,8.274c-0.241-2.371,3.476-7.578,3.356-8.761
	c6.61,1.717,17.293,1.817,21.79,3.754c-2.367-2.157-4.86-5.514-7.226-7.669c6.466,0.521,17.026-0.562,21.39,0.184
	c-4.479-1.937-6.952-5.295-11.434-7.232c15.177,2.029,28.475,6.675,43.388,6.325c-6.948-5.297-13.789-9.4-24.849-13.062
	c10.933,2.479,21.76,3.755,32.578,5.029c-4.72-4.312-13.55-7.014-24.36-8.293"/>
<path fill="#FFFFFF" stroke="#000000" stroke-width="3" stroke-miterlimit="10" d="M324.242,481.354
	c17.933,58.463,76.682,121.553,166.07,65.493c70.539-44.236,95.802-118.622,100.793-147.333L324.242,481.354z"/>
<path d="M462.832,502.624c5.263,32.135-2.363,60.14-17.056,62.547c-14.691,2.395-30.855-21.706-36.125-53.834
	c-5.272-32.146,2.354-60.162,17.051-62.57C441.378,446.361,457.557,470.464,462.832,502.624z"/>
<path fill="#93278F" stroke="#000000" stroke-width="3" stroke-miterlimit="10" d="M704.585,374.8
	C842.146,440.829,860.8,206.572,857.396,124.133c-0.717-7.104,0.387-17.701,0.593-26.57
	c-11.503,76.816-103.104,93.309-152.804,136.439c-40.655,34.46-58.522,119.058,0.332,139.048"/>
</svg>
