<?xml version="1.0" encoding="utf-8"?>
<!-- Generator: Adobe Illustrator 16.0.0, SVG Export Plug-In . SVG Version: 6.00 Build 0)  -->
<!DOCTYPE svg PUBLIC "-//W3C//DTD SVG 1.1//EN" "http://www.w3.org/Graphics/SVG/1.1/DTD/svg11.dtd">
<svg version="1.1" id="Laag_1" xmlns="http://www.w3.org/2000/svg" xmlns:xlink="http://www.w3.org/1999/xlink" x="0px" y="0px"
	 width="1234.015px" height="1177.992px" viewBox="0 0 1234.015 1177.992" enable-background="new 0 0 1234.015 1177.992"
	 xml:space="preserve">
<path fill="#323246" stroke="#000000" stroke-width="3" stroke-linecap="round" stroke-miterlimit="10" d="M365.923,725.531
	c0,0,8.902,4.197,15.503,3.365c6.601-0.83,8.734-15.855,7.76,3.049c-0.975,18.898-35.113,51.357,4.094,22.955
	c48.31-35,20.501-19.346,20.099-6.553c-0.402,12.791-17.839,17.586,6.256,12.418c43.097-9.242,38.191-23.271,32.792,4.797
	c-6.081,31.611-2.978,28.707,9.5,11.545c26.296-36.168,14.5-28.648,18.669,4.482c3.921,31.152-8.316,20.26,12.947,6.963
	c33.57-20.988,16.719-17.303,19.193,8.633c4.205,44.082-5.006,34.174,15.156,24.545c30.364-14.498,25.036-33.143,19.768,11.715
	l1.896-1.393c4.956-5.773,9.938-11.604,14.899-17.432c2.026-2.377,4.048-4.754,6.062-7.127
	c40.832-48.082,78.814-94.213,86.275-104.537c15.99-22.129,18.346-33.129,12.494-60.584c-6.545-30.691-58.784-30.152-94.346-25.008
	c-35.563,5.146-64.512,30.916-85.542,44.963c-19.487,13.02-75.948,38.742-114.644,58.602
	C371.694,722.502,368.739,724.039,365.923,725.531"/>
<g>
	<polygon fill="#FFFFFF" stroke="#000000" stroke-width="3" stroke-miterlimit="10" points="596.145,724.986 588.215,738.727 
		577.867,723.59 567.653,708.533 585.864,709.895 604.081,711.248 	"/>
	<polygon fill="#FFFFFF" stroke="#000000" stroke-width="3" stroke-miterlimit="10" points="580.596,752.299 572.213,765.77 
		562.376,750.303 552.659,734.916 570.818,736.879 588.981,738.83 	"/>
	<polygon fill="#FFFFFF" stroke="#000000" stroke-width="3" stroke-miterlimit="10" points="562.399,778.158 552.196,790.307 
		544.647,773.602 537.207,756.992 554.902,761.506 572.608,766.012 	"/>
	<polygon fill="#FFFFFF" stroke="#000000" stroke-width="3" stroke-miterlimit="10" points="543.519,799.814 532.764,811.48 
		525.995,794.443 519.328,777.51 536.8,782.836 554.278,788.15 	"/>
	<polygon fill="#FFFFFF" stroke="#000000" stroke-width="3" stroke-miterlimit="10" points="471.562,595.406 486.868,599.576 
		474.872,613.438 462.915,627.152 459.587,609.195 456.252,591.238 	"/>
	<polygon fill="#FFFFFF" stroke="#000000" stroke-width="3" stroke-miterlimit="10" points="502.601,605.969 517.163,612.264 
		503.322,624.287 489.542,636.172 488.794,617.924 488.037,599.674 	"/>
	<polygon fill="#FFFFFF" stroke="#000000" stroke-width="3" stroke-miterlimit="10" points="531.525,618.266 545.87,625.037 
		531.643,636.592 517.477,648.018 517.332,629.758 517.178,611.488 	"/>
	<polygon fill="#FFFFFF" stroke="#000000" stroke-width="3" stroke-miterlimit="10" points="559.308,633.357 572.552,642.09 
		556.831,651.516 541.192,660.82 543.632,642.723 546.064,624.617 	"/>
	<polygon fill="#FFFFFF" stroke="#000000" stroke-width="3" stroke-miterlimit="10" points="582.997,649.617 595.825,658.951 
		579.685,667.643 563.633,676.215 566.907,658.248 570.171,640.273 	"/>
	<path fill="#FFFFFF" stroke="#000000" stroke-width="3" stroke-linecap="round" stroke-miterlimit="10" d="M490.397,759.568
		c-1.47,3.332-5.865,8.367-2.114,32.729c3.75,24.359,25.056,41.68,25.056,41.68s42.157-19.953,32.999-20.971
		C506.322,808.566,490.397,759.568,490.397,759.568"/>
	<path fill="#FFFFFF" stroke="#000000" stroke-width="3" stroke-linecap="round" stroke-miterlimit="10" d="M427.463,669.105
		c-2.519-2.846-8.385-6.229-13.117-33.139c-4.731-26.912,9.516-53.916,9.516-53.916s46.611,2.941,38.303,7.863
		C425.865,611.432,427.463,669.105,427.463,669.105"/>
</g>
<path fill="#93278F" stroke="#000000" stroke-width="3" stroke-miterlimit="10" d="M672.289,316.809
	c-152.266-9.292-54.527-222.978-11.393-293.323c4.094-5.852,8.268-15.66,12.406-23.486c-27.33,72.672,44.625,131.66,67.033,193.548
	c18.701,49.926-6.85,132.523-67.998,121.274"/>
<path fill="#29ABE2" stroke="#000000" stroke-width="3" stroke-miterlimit="10" d="M1022.648,219.455
	c-0.414-1.639,3.27-2.615,2.838-4.263L1022.648,219.455c-3.449,4.393-4.729,8.266-5.582,13.736
	c12.895-3.357,24.506-11.66,36.154-19.957c-8.191,12.659-20.678,26.438-17.682,37.951c14.213-7.225,25.404-17.164,36.59-27.117
	c-6.031,12.105-14.211,24.764-13.348,36.814c13.33-1.723,27.529-8.943,37.01-16.684c-6.453,10.455-12.5,22.577-9.477,34.073
	c8.588-2.263,20.205-1.784,27.959-7.322c-10.307,13.231-22.83,27.029-23.244,42.927c15.906-0.64,31.832-10.074,46.031-17.297
	c-9.014,9.38-15.916,18.19-17.646,29.178c12.059-6.661,26.693-12.235,40.039-13.97c-12.498,13.791-30.166,25.42-32.738,41.891
	c11.189-1.171,24.111-4.547,36.57-9.565c-9.035,9.382-20.654,17.679-27.975,24.864c11.197-1.176,24.963-1.267,33.994,6.891
	c-9.027,9.387-21.102,16.054-30.131,25.427c11.604,0.481,29.25-2.376,43.443-0.825c-10.752,2.804-20.23,10.561-27.951,16.074
	c12.023,2.131,26.232,3.679,36.963,9.643c-10.734,2.806-20.646,8.91-28.387,14.435c9.893,2.677,21.943,4.793,33.561,5.279
	c-15.486,2.281-30.57,6.233-37.012,16.687c14.182,1.562,26.652,5.297,39.572,10.705c-12.912,3.375-24.967,10.045-31.855,18.854
	c11.168,7.611,26.246,12.457,39.135,17.842c-10.732,2.806-25.365,8.4-32.27,17.211c12.906,5.401,24.943,7.513,39.59,10.718
	c-9.041,0.606-40.018,5.187-42.186,14.523c-2.146,9.349,30.551,11.309,40.01,12.353c-12.479,5.021-24.967,10.034-32.271,17.215
	c14.182,1.536,27.959,1.457,41.723,1.371c-15.488,2.291-30.125,7.869-38.734,18.902c10.775,5.959,26.678,5.307,41.309,8.488
	c-15.916,0.67-35.291,5.717-46.479,15.67c11.617,0.475,27.971,1.469,38.295,5.77c-10.33,4.469-25.396,8.408-36.164,11.217
	c7.744,12,27.971,10.234,42.598,13.424c-17.645,2.867-35.709,4.072-52.084,11.867c9.057-0.621,24.541-2.91,36.594-0.797
	c-12.041,6.666-28.398,5.662-42.613,12.889c11.619,0.49,21.93,4.809,31.838,7.473c-13.34,1.736-31.424,2.961-44.332,6.322
	c5.605,3.816,12.029,10.904,21.955,13.568c-4.736-0.518-9.477-1.027-14.211-1.545c3.863,5.988,7.311,10.369,15.057,13.604
	c-6.021-5.439-37.439-11.262-45.635,1.398c-6.436,10.453,23.658,28.926,29.682,34.357c-8.604-6.518-15.055-4.846-24.508-5.889
	c5.154,2.176,15.898,8.143,23.23,9.734c-13.348,1.729-26.701,3.451-37.449,6.273c5.176,10.928,24.516,14.65,33.564,22.812
	c-17.229,4.496-34.871-1.416-52.082,3.074c7.75,3.246,18.51,9.211,27.949,10.232c-35.283-3.043-45.611,18.947-18.5,34.674
	c-8.197-4.877-22.396-6.422-35.293-3.064c7.734,3.246,11.6,9.248,19.35,12.504c-9.893-2.68-18.482-0.43-27.537,0.17
	c3.863,6.025,3.439,13.146,9.463,18.594c-31.42-5.834-47.344,3.604-23.25,25.365c-7.766-3.229-16.803-2.613-24.973-7.506
	c-0.438,7.131-7.324,15.949-8.613,19.801c-1.709-6.564-8.602-15.297-12.467-21.312c-9.043,9.387-13.354,19.279-15.082,30.273
	c0.857-5.496-0.43-10.43-1.717-15.352c-15.059,12.711-23.688,32.502-31.418,46.816c-7.322-10.365-6.447-24.633-4.717-35.621
	c-15.957,9.445-25.846,24.312-33.584,38.617c3.016-6.055,0.857-14.252,1.701-19.748c-14.186,7.221-22.379,19.877-33.555,29.83
	c-0.006-8.771-0.422-19.186,1.727-28.523c-4.326,9.896-13.77,17.639-25.855,24.291c2.602-7.689-0.814-12.061,4.33-18.662
	c-7.291,7.184-14.629,14.344-21.963,21.525c1.291-3.848,0.004-8.783,1.312-12.619c-7.336,7.174-16.797,14.914-27.129,19.379
	c-2.154-8.213-0.426-19.197,2.178-26.889c-14.205,7.209-23.264,16.6-36.17,19.982c3.016-6.055,5.609-13.756,13.365-19.291
	c-13.797,8.875-32.721,15.564-48.658,16.236c5.191-6.625,9.502-16.527,17.225-22.061c-7.723,5.531-14.201,7.225-24.084,13.322
	c4.311-9.916,12.902-20.936,12.928-29.693c-17.648,2.844-31.438,20.484-47.35,29.906c5.164-6.602,5.59-13.734,10.748-20.342
	c-11.623,8.295-24.959,18.797-42.172,23.291c2.164-9.324,8.617-19.793,15.924-26.963c-9.029,9.387-18.512,17.113-30.984,22.135
	c0.428-7.119,2.588-16.471,7.33-24.715c-6.451,10.457-14.643,14.344-24.971,18.812c3.02-6.057,7.771-14.318,13.352-19.291
	c-7.316,7.172-18.08,9.98-26.24,13.891c2.566-7.697,9.02-18.162,13.344-28.07c-6.467,10.461-18.508,17.127-31.434,20.5
	c0.006-8.77,3.881-20.305,8.637-28.572c-7.337,7.188-17.651,11.639-27.983,16.096c0.021-8.783,6.036-20.875,10.33-30.777
	c-6.885,8.812-16.783,14.91-30.107,16.646c4.725-8.248,4.744-17.037,11.632-25.857c-9.481,7.752-18.957,15.492-31.436,20.498
	c4.312-9.877,8.618-19.791,8.188-30.207c-9.448,7.721-21.104,16.043-33.994,19.414c4.741-8.242,6.888-17.6,11.632-25.844
	c-6.889,8.816-18.093,18.773-27.986,24.859c6.031-12.109,10.342-22.006,13.777-35.189c-2.143,0.555-49.613,22.6-53.936,23.705
	c93.92-75.215,140.608-175.775,136.08-190.539c-3.708-12.084-126.635-114.142-261.144-93.131
	c-4.625,0.721,10.033-13.44,22.26-27.297c11.505-13.036,15.326-9.701,4.985-6.312c-105.68,34.631,37.496-19.913-4.069-21.717
	c-62.45-2.708-44.402-0.448-15.186-15.116c28.26-14.187-26.714-18.354-20.788-22.843c13.273-10.042,45.37-2.146,32.368-14.166
	c-14.127-13.063-31.244-11.087-31.753-16.174c-0.441-4.397,12.063-5.573,23.831-6.565c12.435-1.049,24.044-1.895,18.69-6.122
	c-41.277-32.592-18.369-20.216,2.812-15.938c8.593,1.729,8.367-9.859,2.831-11.444c-88.759-25.425,13.734-3.83,4.112-13.343
	c-7.752-7.664-16.02-14.071-18.032-12.973c-3.674,2.011,31.958,5.733,23.822-7.006c-52.681-82.492,0.407,0.66,13.743-24.532
	c4.581-8.654-15.803-45.091-17.794-54.476c-2.781-13.11,27.925,27.482,33.839,16.298c3.005,11.499-13.549-52.085-7.917-46.143
	c11.912,8.939,28.729,39.116,32.932,29.906c4.196-9.21-13.5-46.693-10.062-55.488c0.868,3.271,21.128,35.258,22,38.541
	c-1.408-9.534-0.626-20.422,1.046-31.225c1.885-12.152,4.893-24.194,7.178-34.078c3.539,16.836,9.264,23.48,15.396,23.356
	c10.228-0.211,8.218-16.133,12.532-38.097c1.283,4.933,16.946,20.377,15.526,13.895c1.312-12.621,4.754-25.806,15.521-37.383
	c1.286,13.703-2.173,26.888,7.295,36.678c16.348-7.764,21.527-23.156,31.864-36.39c0.427,10.417-1.306,21.392,2.996,29.039
	c13.768-8.868,23.668-23.729,34.023-36.958c-0.441,7.125,3.842,14.776,4.704,18.059c7.325-7.185,14.242-16.009,20.662-26.45
	c-0.424,7.123,3.893,14.77,3.453,21.906c15.492-11.062,22.834-27.019,32.715-41.9c-2.578,7.698,2.152,16.994,1.283,22.482
	c11.205-9.952,22.393-19.893,33.561-29.829c-4.732,25.805,16.373,27.308,33.146,3.607c-0.855,5.496,3.023,11.509,1.732,15.347
	c7.314-7.185,15.916-18.194,23.688-23.733c-0.441,7.134-0.01,17.554-0.447,24.688c14.217-7.225,23.668-23.729,34.869-33.698
	c-0.002,8.784-1.736,19.756-1.738,28.538c12.477-5.007,23.229-16.607,30.146-25.433c-0.871,5.501-3.021,14.825-6.037,20.886
	c7.316-7.184,15.912-9.42,23.229-16.604c-3.018,6.051-3.441,13.172-6.455,19.237c9.021-0.615,1.725-2.204,7.312,1.595
	c5.58-4.979,11.623-8.291,16.801-14.934c-6.471,10.468-6.043,20.885-1.74,28.536c14.199-7.21,25.393-17.164,40.008-22.735
	c-3.859,11.533-9.039,26.924-1.717,37.289c11.607-8.3,24.961-18.809,41.316-26.599c-24.105,30.879,9.02,34.5,37.006,18.418
	c-4.326,9.892-8.617,19.791-8.219,30.201c15.08-3.929,29.283-11.153,38.744-18.9c-5.154,6.628-7.738,14.315-12.902,20.921
	c12.043-6.642,21.092-16.017,30.553-23.769C1010.626,199.8,1033.853,209.51,1022.648,219.455"/>
<path fill="#148CCF" stroke="#000000" stroke-width="2" stroke-miterlimit="10" d="M919.019,964.826
	c12.938,1.062,27.857,0.717,42.789,0.359c-14.551,3.93-29.604,3.076-38.803-3.178c16.539-5.322,39.689-8.939,58.602-12.104
	c-10.695-0.088-23.635-1.15-34.439-2.439c12.307-4.881,26.855-8.803,34.693-15.635c-14.938,0.352-31.852,2.109-45.025-1.334
	c7.828-6.834,22.266-11.939,32.346-17.799c-10.432,2.293-21.018,3.383-31.568,4.49c5.82-5.438,11.562-12.041,17.406-17.463
	c-12.453,3.715-28.982,9.025-43.908,9.385c-0.875-8.328,4.729-16.133,8.092-24.898c-5.727,6.607-16.061,10.098-21.9,15.504
	c-9.189-6.264-10.188-15.781-13.156-23.889c-3.74,5.197-11.812,9.637-15.68,13.65c-7.088-6.48-12.307-15.564-25.607-20.188
	c-3.625,6.381-9.338,12.996-17.297,18.643c-9.084-5.078-16.307-12.754-19.135-19.676c0.361,3.57-5.234,11.367-4.875,14.945
	c-9.082-5.076-18.398-12.521-29.469-16.203c2.617,4.547-1.01,10.936,1.613,15.471c-6.836-4.08-17.9-7.754-26.494-8.061
	c0.252,2.379-3.354,8.775-0.875,12.121c-13.049-2.252-24.246-7.105-37.418-10.551c2.479,3.344,3.215,10.482,5.695,13.836
	c-6.83-4.09-15.791-7.98-26.6-9.262c-1.359,7.359,5.711,13.842,12.787,20.334c-10.928-2.484-21.738-3.771-34.57-3.633
	c16.051,10.359,3.969,17.615-17.416,17.449c6.471,0.527,13.43,5.816,20.025,7.541c-8.221,3.256-16.314,7.703-26.748,9.992
	c2.113-0.217,6.467,0.529,8.568,0.299c-16.299,7.73-21.631,17.896,3.85,16.457c-6.104,3.035-16.178,8.898-24.391,12.146
	c4.117-1.629,12.699-1.311,18.918-3.16c-10.088,5.859-20.154,11.711-27.996,18.551c10.57-1.1,23.254-2.42,33.701-4.715
	c-5.971,4.23-9.578,10.633-15.559,14.859c8.33-2.068,16.91-1.764,25.133-5.018c0.246,2.385-1.377,7.363-3.111,11.152
	c3.854-4.014,12.182-6.08,16.162-8.902c0.391,3.57,4.969,6.701,5.221,9.09c4.117-1.643,14.438-5.119,18.428-7.934
	c-1.752,3.793,0.727,7.139,0.963,9.52c6.121-3.043,16.549-5.33,22.424-10.758c-3.869,4.021-3.254,9.969-4.992,13.758
	c5.955-4.229,18.523-6.736,24.633-9.777c3.469,12.867,25.096,15.439,25.623-0.256c0.365,3.566,2.854,6.918,3.104,9.307
	c3.727-5.201,13.811-11.062,15.545-14.852c2.605,4.543,9.324,7.459,11.943,11.996c1.748-3.801,9.705-9.436,11.561-12.025
	c2.867,6.918,7.697,12.43,18.775,16.09c-0.377-3.572,7.459-10.396,9.201-14.184c2.627,4.535,13.562,7.018,16.043,10.357
	c-0.379-3.561,1.371-7.352,1.008-10.922c6.725,2.896,17.654,5.379,24.363,8.273c-0.24-2.369,3.477-7.576,3.357-8.762
	c6.609,1.719,17.293,1.818,21.789,3.754c-2.367-2.154-4.859-5.514-7.227-7.668c6.467,0.521,17.027-0.562,21.391,0.186
	c-4.479-1.939-6.951-5.295-11.434-7.232c15.176,2.029,28.475,6.674,43.387,6.324c-6.947-5.297-13.789-9.4-24.848-13.062
	c10.932,2.48,21.76,3.758,32.578,5.029c-4.723-4.311-13.553-7.014-24.361-8.293"/>
<path fill="#FFFFFF" stroke="#000000" stroke-width="3" stroke-miterlimit="10" d="M470.158,426.215
	c17.933,58.465,76.682,121.555,166.068,65.493c70.539-44.234,95.805-118.622,100.795-147.333L470.158,426.215z"/>
<path d="M608.748,447.486c5.263,32.135-2.363,60.14-17.056,62.547c-14.691,2.396-30.855-21.706-36.125-53.834
	c-5.272-32.146,2.354-60.162,17.051-62.57C587.294,391.223,603.473,415.326,608.748,447.486z"/>
<path fill="#93278F" stroke="#000000" stroke-width="3" stroke-miterlimit="10" d="M850.5,319.662
	c137.562,66.029,156.215-168.228,152.812-250.667c-0.719-7.104,0.387-17.701,0.592-26.57
	c-11.502,76.816-103.104,93.309-152.805,136.439c-40.654,34.46-58.521,119.058,0.332,139.048"/>
<path fill="#646464" stroke="#000000" stroke-width="3" stroke-miterlimit="10" d="M503.549,1047.006
	c0.686,18.018-4.217,36.76-17.44,43.502c-21.914,11.178-37.845,6.018-44.562,0.814c-11.194-8.67-18.912-23.777-19.574-41.219
	c-0.758-19.965,7.477-38.188,21.19-46.307c17.524-10.361,42.417-3.217,49.667,3.463
	C502.499,1016.166,502.943,1031.057,503.549,1047.006z"/>
<path fill="#646464" stroke="#000000" stroke-width="3" stroke-miterlimit="10" d="M373.968,1059.988l47.141,1.596
	c3.025-1.379,1.49-33.59,1.49-33.59l-12.272-1.469L373.968,1059.988z"/>
<path fill="#323246" stroke="#000000" stroke-width="3" stroke-miterlimit="10" d="M516.945,841.666
	c-24.395,56.723-48.272,109.678-56.286,120.689c-17.529,24.09-57.878,92.725-158.236,143.645
	c-100.359,50.922-192.38,81.459-245.705,65.572c-53.326-15.889-55.858-38.867-52.909-54.84c2.916-15.795,5.789-31.68,77.904-91.021
	c0.822-0.676,1.652-1.355,2.491-2.043c0,0,46.256-29.127,74.541-61.021c0,0,0.434-0.49,1.253-1.416
	c12.842-14.518,120.674-136.312,149.389-165.281c0,0,11.648-1.713,17.701-4.477c6.053-2.764,3.607-17.736,8.315,0.594
	c4.709,18.328-18.191,59.496,10.756,20.688c35.668-47.818,13.796-24.58,17.229-12.25c3.433,12.326-11.78,22.105,9.678,9.984
	c38.376-21.68,29.508-33.604,32.729-5.207c3.627,31.988,5.723,28.289,12.512,8.188c14.308-42.367,5.292-31.67,19.156-1.293
	c13.037,28.564-1.896,21.816,14.437,2.781c25.777-30.049,10.796-21.5,20.895,2.516c17.165,40.818,5.417,34.107,21.792,18.902
	C519.239,813.484,508.592,797.281,516.945,841.666"/>
</svg>
