<?xml version="1.0" encoding="utf-8"?>
<!-- Generator: Adobe Illustrator 16.0.0, SVG Export Plug-In . SVG Version: 6.00 Build 0)  -->
<!DOCTYPE svg PUBLIC "-//W3C//DTD SVG 1.1//EN" "http://www.w3.org/Graphics/SVG/1.1/DTD/svg11.dtd">
<svg version="1.1" id="Laag_1" xmlns="http://www.w3.org/2000/svg" xmlns:xlink="http://www.w3.org/1999/xlink" x="0px" y="0px"
	 width="564.051px" height="623.494px" viewBox="88.497 27.35 564.051 623.494"
	 enable-background="new 88.497 27.35 564.051 623.494" xml:space="preserve">
<polygon fill="#FFFFFF" stroke="#000000" stroke-width="2" stroke-miterlimit="10" points="254.63,478.426 249.701,486.965 
	243.269,477.558 236.92,468.199 248.239,469.044 259.562,469.887 "/>
<polygon fill="#FFFFFF" stroke="#000000" stroke-width="2" stroke-miterlimit="10" points="244.965,495.402 239.754,503.773 
	233.641,494.161 227.601,484.598 238.887,485.817 250.176,487.029 "/>
<polygon fill="#FFFFFF" stroke="#000000" stroke-width="2" stroke-miterlimit="10" points="233.655,511.475 227.313,519.024 
	222.622,508.642 217.997,498.319 228.995,501.124 240,503.924 "/>
<polygon fill="#FFFFFF" stroke="#000000" stroke-width="2" stroke-miterlimit="10" points="221.919,524.934 215.236,532.185 
	211.028,521.596 206.884,511.07 217.744,514.382 228.607,517.686 "/>
<polygon fill="#FFFFFF" stroke="#000000" stroke-width="2" stroke-miterlimit="10" points="177.196,397.888 186.708,400.478 
	179.253,409.093 171.821,417.618 169.752,406.457 167.68,395.296 "/>
<polygon fill="#FFFFFF" stroke="#000000" stroke-width="2" stroke-miterlimit="10" points="196.488,404.452 205.539,408.362 
	196.936,415.837 188.372,423.224 187.907,411.883 187.435,400.538 "/>
<polygon fill="#FFFFFF" stroke="#000000" stroke-width="2" stroke-miterlimit="10" points="214.465,412.095 223.381,416.304 
	214.539,423.485 205.734,430.587 205.644,419.237 205.548,407.882 "/>
<polygon fill="#FFFFFF" stroke="#000000" stroke-width="2" stroke-miterlimit="10" points="231.734,421.475 239.965,426.902 
	230.194,432.761 220.474,438.544 221.99,427.296 223.502,416.041 "/>
<polygon fill="#FFFFFF" stroke="#000000" stroke-width="2" stroke-miterlimit="10" points="246.458,431.58 254.43,437.382 
	244.399,442.783 234.421,448.112 236.457,436.945 238.486,425.772 "/>
<path fill="#FFFFFF" stroke="#000000" stroke-width="2" stroke-linecap="round" stroke-miterlimit="10" d="M188.903,499.919
	c-0.912,2.072-3.646,5.201-1.313,20.344c2.331,15.142,15.573,25.904,15.573,25.904s26.202-12.402,20.51-13.033
	C198.801,530.374,188.903,499.919,188.903,499.919"/>
<path fill="#FFFFFF" stroke="#000000" stroke-width="2" stroke-linecap="round" stroke-miterlimit="10" d="M149.787,443.693
	c-1.565-1.77-5.212-3.869-8.152-20.598c-2.941-16.727,5.914-33.51,5.914-33.51s28.971,1.829,23.807,4.888
	C148.793,407.847,149.787,443.693,149.787,443.693"/>
<path fill="#93278F" stroke="#000000" stroke-width="2" stroke-miterlimit="10" d="M301.956,224.727
	c-94.64-5.775-33.892-138.589-7.081-182.312c2.543-3.638,5.138-9.732,7.711-14.598c-16.987,45.168,27.736,81.832,41.664,120.298
	c11.624,31.031-4.258,82.369-42.264,75.376"/>
<path fill="#29ABE2" stroke="#000000" stroke-width="2" stroke-miterlimit="10" d="M519.717,164.217
	c-0.257-1.019,2.032-1.625,1.764-2.649L519.717,164.217c-2.145,2.73-2.937,5.137-3.469,8.538
	c8.015-2.086,15.229-7.247,22.473-12.404c-5.095,7.868-12.852,16.432-10.989,23.588c8.835-4.491,15.79-10.668,22.742-16.854
	c-3.749,7.524-8.833,15.392-8.296,22.882c8.284-1.071,17.11-5.559,23.002-10.37c-4.011,6.499-7.77,14.032-5.891,21.178
	c5.339-1.407,12.56-1.109,17.379-4.551c-6.406,8.224-14.189,16.799-14.447,26.681c9.888-0.397,19.785-6.261,28.611-10.751
	c-5.604,5.83-9.893,11.306-10.97,18.135c7.496-4.139,16.591-7.605,24.887-8.683c-7.769,8.572-18.75,15.8-20.349,26.037
	c6.952-0.728,14.985-2.826,22.729-5.945c-5.615,5.832-12.838,10.988-17.387,15.454c6.961-0.731,15.516-0.785,21.13,4.283
	c-5.611,5.834-13.115,9.979-18.728,15.805c7.212,0.298,18.18-1.477,27-0.514c-6.682,1.742-12.571,6.563-17.37,9.991
	c7.473,1.325,16.304,2.285,22.974,5.992c-6.673,1.744-12.834,5.538-17.645,8.973c6.148,1.663,13.64,2.978,20.86,3.281
	c-9.626,1.418-19.002,3.875-23.004,10.372c8.815,0.971,16.566,3.292,24.597,6.652c-8.024,2.1-15.518,6.243-19.8,11.717
	c6.94,4.732,16.313,7.743,24.322,11.091c-6.672,1.743-15.769,5.222-20.057,10.696c8.021,3.357,15.503,4.67,24.604,6.662
	c-5.619,0.377-24.871,3.222-26.219,9.027c-1.334,5.81,18.988,7.028,24.867,7.678c-7.756,3.121-15.519,6.235-20.058,10.699
	c8.812,0.955,17.377,0.905,25.932,0.854c-9.627,1.423-18.726,4.889-24.075,11.747c6.695,3.702,16.581,3.299,25.674,5.274
	c-9.893,0.418-21.935,3.555-28.888,9.74c7.221,0.295,17.385,0.913,23.802,3.587c-6.419,2.776-15.783,5.227-22.477,6.972
	c4.812,7.459,17.384,6.361,26.475,8.344c-10.965,1.782-22.194,2.531-32.373,7.377c5.63-0.387,15.254-1.812,22.745-0.497
	c-7.483,4.145-17.65,3.521-26.486,8.011c7.224,0.307,13.631,2.988,19.789,4.644c-8.292,1.08-19.532,1.841-27.554,3.932
	c3.482,2.373,7.477,6.777,13.646,8.435c-2.943-0.32-5.891-0.641-8.834-0.961c2.402,3.723,4.544,6.445,9.359,8.453
	c-3.745-3.381-23.272-6.998-28.363,0.872c-4.001,6.497,14.704,17.979,18.446,21.354c-5.346-4.05-9.354-3.012-15.231-3.658
	c3.204,1.352,9.884,5.06,14.438,6.051c-8.294,1.073-16.596,2.146-23.276,3.898c3.218,6.793,15.238,9.107,20.863,14.181
	c-10.707,2.795-21.674-0.879-32.372,1.912c4.818,2.018,11.505,5.725,17.373,6.359c-21.932-1.893-28.35,11.777-11.499,21.552
	c-5.095-3.031-13.921-3.992-21.935-1.905c4.808,2.017,7.208,5.748,12.024,7.771c-6.147-1.665-11.489-0.268-17.116,0.104
	c2.401,3.745,2.139,8.171,5.881,11.555c-19.527-3.625-29.425,2.24-14.451,15.769c-4.824-2.007-10.44-1.626-15.521-4.665
	c-0.272,4.432-4.552,9.914-5.354,12.307c-1.062-4.081-5.345-9.508-7.746-13.247c-5.622,5.835-8.301,11.983-9.374,18.817
	c0.532-3.417-0.27-6.48-1.067-9.541c-9.358,7.899-14.722,20.202-19.527,29.099c-4.552-6.441-4.008-15.31-2.932-22.14
	c-9.918,5.871-16.063,15.113-20.873,24.002c1.872-3.762,0.533-8.858,1.058-12.274c-8.816,4.488-13.908,12.354-20.854,18.54
	c-0.004-5.448-0.264-11.923,1.073-17.729c-2.689,6.149-8.561,10.965-16.072,15.098c1.616-4.778-0.508-7.494,2.692-11.598
	c-4.531,4.463-9.094,8.914-13.651,13.379c0.803-2.391,0.002-5.459,0.813-7.845c-4.56,4.459-10.438,9.271-16.86,12.046
	c-1.339-5.105-0.265-11.934,1.353-16.713c-8.828,4.479-14.46,10.317-22.48,12.421c1.874-3.764,3.486-8.549,8.308-11.989
	c-8.574,5.517-20.337,9.674-30.242,10.091c3.228-4.117,5.905-10.271,10.705-13.71c-4.8,3.438-8.826,4.49-14.97,8.28
	c2.679-6.162,8.021-13.012,8.034-18.456c-10.968,1.768-19.537,12.733-29.429,18.589c3.211-4.103,3.475-8.538,6.681-12.643
	c-7.225,5.154-15.514,11.684-26.211,14.476c1.345-5.794,5.355-12.301,9.896-16.757c-5.611,5.834-11.505,10.635-19.259,13.757
	c0.266-4.426,1.609-10.238,4.556-15.362c-4.009,6.5-9.1,8.916-15.519,11.693c1.876-3.762,4.829-8.898,8.298-11.99
	c-4.549,4.457-11.239,6.206-16.311,8.635c1.595-4.784,5.605-11.289,8.294-17.446c-4.02,6.502-11.503,10.644-19.537,12.74
	c0.003-5.45,2.412-12.619,5.368-17.761c-4.561,4.469-10.972,7.233-17.393,10.004c0.012-5.459,3.751-12.975,6.42-19.129
	c-4.279,5.477-10.432,9.268-18.714,10.348c2.937-5.128,2.949-10.592,7.229-16.072c-5.894,4.816-11.783,9.629-19.538,12.74
	c2.68-6.141,5.356-12.303,5.09-18.774c-5.872,4.799-13.116,9.97-21.128,12.065c2.946-5.123,4.279-10.938,7.229-16.062
	c-4.282,5.482-11.246,11.67-17.396,15.453c3.749-7.528,6.428-13.679,8.564-21.873c-1.332,0.345-30.838,14.046-33.522,14.733
	c58.375-46.749,87.395-109.251,84.578-118.429c-2.305-7.512-78.708-70.944-162.31-57.886c-2.875,0.448,6.235-8.354,13.835-16.966
	c7.151-8.102,9.525-6.029,3.098-3.924c-65.684,21.525,23.305-12.377-2.528-13.497c-38.815-1.685-27.599-0.279-9.439-9.396
	c17.565-8.817-16.603-11.409-12.92-14.198c8.249-6.241,28.198-1.333,20.118-8.804c-8.781-8.12-19.42-6.892-19.736-10.054
	c-0.273-2.733,7.498-3.464,14.812-4.08c7.729-0.653,14.943-1.178,11.616-3.806c-25.656-20.256-11.417-12.565,1.748-9.907
	c5.341,1.076,5.2-6.128,1.759-7.113c-55.167-15.803,8.537-2.381,2.557-8.294c-4.818-4.763-9.957-8.746-11.208-8.062
	c-2.283,1.248,19.863,3.564,14.807-4.354c-32.743-51.272,0.253,0.411,8.542-15.248c2.847-5.379-9.822-28.026-11.06-33.859
	c-1.729-8.148,17.356,17.082,21.032,10.13c1.867,7.146-8.421-32.374-4.921-28.68c7.403,5.556,17.855,24.312,20.468,18.588
	c2.609-5.725-8.391-29.022-6.253-34.488c0.539,2.033,13.133,21.915,13.673,23.955c-0.875-5.926-0.389-12.693,0.651-19.408
	c1.17-7.553,3.039-15.038,4.46-21.181c2.199,10.464,5.757,14.594,9.57,14.516c6.355-0.131,5.108-10.027,7.789-23.678
	c0.799,3.066,10.533,12.665,9.651,8.636c0.816-7.844,2.955-16.04,9.647-23.235c0.8,8.517-1.351,16.712,4.534,22.797
	c10.16-4.826,13.381-14.393,19.805-22.618c0.266,6.474-0.811,13.296,1.862,18.049c8.557-5.512,14.711-14.749,21.147-22.971
	c-0.275,4.428,2.388,9.185,2.925,11.225c4.553-4.465,8.851-9.95,12.842-16.44c-0.265,4.427,2.418,9.181,2.146,13.616
	c9.63-6.875,14.192-16.792,20.334-26.042c-1.604,4.785,1.338,10.563,0.797,13.974c6.964-6.186,13.918-12.364,20.86-18.54
	c-2.942,16.039,10.177,16.973,20.601,2.242c-0.53,3.416,1.88,7.153,1.078,9.538c4.547-4.466,9.893-11.308,14.722-14.75
	c-0.274,4.434-0.008,10.91-0.277,15.344c8.836-4.49,14.711-14.749,21.672-20.944c-0.001,5.459-1.078,12.279-1.081,17.737
	c7.755-3.112,14.438-10.322,18.739-15.808c-0.543,3.419-1.88,9.214-3.755,12.981c4.55-4.464,9.893-5.855,14.438-10.32
	c-1.875,3.761-2.139,8.188-4.013,11.957c5.606-0.382,1.07-1.37,4.547,0.991c3.468-3.095,7.224-5.153,10.44-9.282
	c-4.021,6.506-3.756,12.981-1.082,17.736c8.826-4.481,15.782-10.668,24.866-14.13c-2.397,7.167-5.617,16.734-1.065,23.176
	c7.216-5.159,15.514-11.69,25.681-16.532c-14.982,19.192,5.605,21.442,23,11.447c-2.689,6.149-5.356,12.301-5.108,18.771
	c9.373-2.442,18.201-6.933,24.082-11.748c-3.205,4.12-4.811,8.898-8.021,13.003c7.484-4.128,13.107-9.955,18.989-14.773
	C512.246,152,526.683,158.037,519.717,164.217"/>
<path fill="#148CCF" stroke="#000000" stroke-width="2" stroke-miterlimit="10" d="M455.308,627.495
	c8.04,0.661,17.315,0.445,26.598,0.224c-9.044,2.441-18.4,1.912-24.117-1.974c10.278-3.311,24.665-5.558,36.421-7.523
	c-6.648-0.056-14.689-0.716-21.405-1.517c7.649-3.034,16.689-5.471,21.563-9.717c-9.284,0.216-19.796,1.311-27.985-0.828
	c4.866-4.248,13.838-7.425,20.104-11.063c-6.483,1.425-13.062,2.104-19.623,2.791c3.62-3.379,7.188-7.483,10.819-10.854
	c-7.74,2.31-18.015,5.609-27.292,5.833c-0.543-5.176,2.941-10.027,5.029-15.476c-3.558,4.105-9.979,6.273-13.612,9.636
	c-5.714-3.894-6.332-9.811-8.178-14.848c-2.325,3.23-7.342,5.988-9.745,8.483c-4.404-4.027-7.647-9.674-15.916-12.547
	c-2.254,3.967-5.804,8.077-10.751,11.586c-5.646-3.157-10.134-7.928-11.892-12.229c0.224,2.222-3.255,7.065-3.03,9.289
	c-5.646-3.153-11.437-7.783-18.315-10.069c1.626,2.824-0.63,6.795,1.002,9.613c-4.249-2.536-11.125-4.817-16.467-5.008
	c0.156,1.479-2.084,5.453-0.544,7.532c-8.109-1.399-15.069-4.414-23.257-6.558c1.54,2.077,1.999,6.518,3.54,8.6
	c-4.246-2.542-9.814-4.957-16.532-5.756c-0.846,4.576,3.551,8.603,7.948,12.638c-6.792-1.544-13.511-2.344-21.487-2.256
	c9.976,6.438,2.467,10.949-10.824,10.845c4.021,0.329,8.346,3.616,12.446,4.688c-5.108,2.022-10.141,4.787-16.625,6.21
	c1.313-0.135,4.02,0.329,5.325,0.187c-10.13,4.804-13.444,11.121,2.394,10.229c-3.796,1.888-10.056,5.531-15.159,7.551
	c2.559-1.012,7.893-0.812,11.757-1.965c-6.27,3.644-12.525,7.279-17.399,11.529c6.569-0.685,14.453-1.504,20.946-2.932
	c-3.71,2.631-5.954,6.609-9.669,9.237c5.178-1.286,10.511-1.095,15.621-3.119c0.152,1.483-0.855,4.577-1.935,6.932
	c2.395-2.49,7.57-3.777,10.044-5.531c0.243,2.219,3.089,4.166,3.246,5.649c2.559-1.021,8.973-3.182,11.453-4.931
	c-1.089,2.355,0.449,4.438,0.599,5.917c3.804-1.891,10.284-3.312,13.937-6.688c-2.404,2.499-2.021,6.196-3.104,8.553
	c3.701-2.631,11.517-4.188,15.312-6.078c2.155,7.998,15.6,9.598,15.926-0.159c0.226,2.218,1.772,4.3,1.93,5.784
	c2.313-3.234,8.583-6.874,9.662-9.23c1.618,2.823,5.795,4.637,7.422,7.457c1.087-2.361,6.032-5.864,7.188-7.477
	c1.783,4.301,4.784,7.727,11.67,10.001c-0.232-2.22,4.638-6.461,5.721-8.814c1.633,2.818,8.43,4.36,9.971,6.438
	c-0.235-2.215,0.853-4.569,0.626-6.788c4.178,1.798,10.974,3.343,15.146,5.144c-0.151-1.476,2.157-4.711,2.086-5.445
	c4.108,1.066,10.748,1.131,13.543,2.332c-1.472-1.341-3.021-3.426-4.491-4.767c4.02,0.325,10.583-0.35,13.295,0.114
	c-2.783-1.203-4.32-3.291-7.105-4.495c9.434,1.262,17.697,4.146,26.968,3.931c-4.319-3.291-8.571-5.842-15.445-8.118
	c6.796,1.541,13.523,2.334,20.25,3.128c-2.934-2.681-8.422-4.359-15.143-5.154"/>
<path fill="#93278F" stroke="#000000" stroke-width="2" stroke-miterlimit="10" d="M412.721,226.5
	c85.5,41.039,97.096-104.561,94.979-155.8c-0.445-4.416,0.24-11.002,0.368-16.515c-7.149,47.745-64.083,57.995-94.974,84.803
	c-25.271,21.418-36.376,74,0.205,86.424"/>
<ellipse fill="#FFFFFF" stroke="#000000" stroke-width="3" stroke-miterlimit="10" cx="222.64" cy="293.541" rx="45.078" ry="80.155"/>
<ellipse cx="207.701" cy="321.748" rx="15.996" ry="26.588"/>
</svg>
