<?xml version="1.0" encoding="utf-8"?>
<!-- Generator: Adobe Illustrator 16.0.0, SVG Export Plug-In . SVG Version: 6.00 Build 0)  -->
<!DOCTYPE svg PUBLIC "-//W3C//DTD SVG 1.1//EN" "http://www.w3.org/Graphics/SVG/1.1/DTD/svg11.dtd">
<svg version="1.1" id="Laag_1" xmlns="http://www.w3.org/2000/svg" xmlns:xlink="http://www.w3.org/1999/xlink" x="0px" y="0px"
	 width="666.722px" height="589.868px" viewBox="333.71 226.938 666.722 589.868"
	 enable-background="new 333.71 226.938 666.722 589.868" xml:space="preserve">
<path fill="#29ABE2" stroke="#000000" stroke-width="3" stroke-miterlimit="10" d="M863.947,705.855
	c-13.832-16.483-39.114-3.459-34.377,17.767c-1.426-5.683-6.705-12.219-9.706-16.916c-2.237,10.276,3.474,20.946,1.233,31.229
	c-6.834-5.537-11-17.196-19.675-20.449c-1.408,6.416-1.803,14.415-2.201,22.404c-1.716-4.422-6.995-10.95-9.006-14.075
	c1.443,5.693,0.613,9.543,6.166,14.79c-24.976-20.214-0.256-32.133-28.194-18.265c-9.075,4.754-2.48,13.693,2.066,17.381
	c-2.992-4.695-6.561-6.819-11.387-9.219c0.719,2.851,1.436,5.701,2.153,8.553c-2.709-5.991-8.546-9.941-11.842-13.359
	c-1.671,7.71-1.359,18.549-1.765,26.537c-2.71-5.983-6.704-12.23-7.874-19.215c-4.522,8.441-2.636,18.275-6.882,25.419
	c-2.438-7.266-1.758-16.532-1.907-21.959c-4.808,9.729-4.487,20.56-5.459,31.117c-3.427-8.826-3.478-20.946-13.142-25.749
	c-1.399,6.425-3.364,15.421-6.056,21.565c-3.984-6.255-5.862-16.088-7.023-23.069c-6.81,6.588-9.32,18.154-8.732,27.704
	c-3.429-8.824-4.023-18.364-9.304-24.913c-7.807,5.024-11.046,13.74-11.728,23.007c-0.879-8.259-1.764-16.529-3.907-25.063
	c-4.967,4.292-7.924,11.726-10.888,19.15c-1.445-5.691-5.185-25.347-12.153-24.178c-6.958,1.177-8.316,19.715-8.157,25.136
	c-3.445-8.836-5.881-16.09-10.877-23.907c-6.232,4.028-9.491,12.742-10.886,19.148c-4.985-7.806-9.708-16.923-16.271-23.725
	c-6.232,4.02-10.48,11.174-12.161,18.879c-5.003-7.829-8.707-15.362-10.87-23.896c-7.513,3.729-9.486,12.731-10.158,22.003
	c-1.17-6.983-3.605-14.246-6.325-20.221c-3.673,4.575-7.639,10.448-9.035,16.855c-5.279-6.52-7.433-15.071-9.88-22.317
	c-3.671,4.565-8.921,10.154-10.318,16.574c-2.153-8.543-1.19-9.101-2.352-16.073c-6.517,5.3-10.765,2.461-17.288,7.759
	c-6.827-5.527-7.706-3.79-7.583-10.5c-4.966,4.302-10.479,1.173-17.004,6.473c2.963-7.415,4.645-5.132,4.766-11.831
	c-12.358,1.328-19.998,1.784-29.637,9.108c0.404-7.985,3.644-16.704,7.883-23.855c-8.243,0.896-14.475,4.929-20.998,10.217
	c4.522-8.433,10.612-17.871,10.006-27.411c-12.076,0.038-21.717,7.382-31.083,13.396c3.685-4.584,2.522-11.566,3.652-16.695
	c-8.959-1.961-17.769,11.51-25.283,15.251c5.239-5.594,9.761-24.022,10.157-32.005c-9.234-0.673-18.309,14.069-27.108,17.537
	c6.809-6.591,13.605-23.178,18.127-31.618c-8.969-1.948-18.6,5.37-27.674,10.123c5.518-6.89,14.436-11.677,16.105-19.375
	l1.681,0.979c-12.777-7.771-27.857-9.921-29.688-10.671c35.35,1.573,19.795-6.947-5.013-16.327
	c3.934,0.031,9.173,0.059,13.089,1.405c-9.145-2.703-18.282-6.708-24.753-14.646c10.468,1.392,19.604,5.405,28.795,1.521
	c-2.511-10.526-12.943-15.865-20.737-23.812c7.85,1.369,15.679,4.056,22.242,2.79c-3.854-9.228-12.944-17.177-20.729-25.132
	c5.22,1.355,11.781,0.098,14.4,0.11c-3.888-5.287-9.079-10.601-15.573-15.88c5.223,1.345,11.786,0.068,17.015,1.424
	c-5.139-10.55-15.562-17.209-24.673-25.153c5.222,2.666,13.098,1.406,17.014,2.755c-5.175-7.933-10.342-15.854-15.51-23.768
	c18.284,6.698,23.633-5.108,9.328-18.347c3.925,1.341,9.184,0.059,11.785,1.391c-3.89-5.288-10.37-11.897-12.943-17.188
	c5.229,1.355,13.079,2.726,18.31,4.08c-2.537-9.229-12.944-17.178-18.128-25.11c6.544,1.362,14.375,4.049,20.919,5.412
	c-1.233-7.894-7.725-15.824-12.915-21.136c3.923,1.349,10.44,4.02,14.356,6.679c-3.889-5.287-3.836-10.535-7.724-15.823
	c3.907,2.658,9.129,4.004,13.044,6.663c1.349-5.243-1.296-1.325,2.655-3.926c-2.595-3.953-3.853-7.914-7.768-11.894
	c6.507,5.31,14.357,6.678,20.919,5.412c-2.528-9.218-7.704-17.141-8.93-26.344c7.824,3.988,18.255,9.327,27.448,6.754
	c-3.863-7.907-9.021-17.149-11.55-27.687c18.185,18.534,27.52,0.198,21.138-18.256c6.507,4,13.025,7.981,20.863,9.367
	c0.093-9.214-2.446-18.433-6.326-25.031c3.908,3.97,9.119,6.633,13.008,10.601c-2.539-7.898-7.714-14.51-11.594-21.108
	c7.787,7.935,19.679-3.811,24.845,4.121c-1.305-0.015-1.293-2.271-2.607-2.278l2.607,2.278c2.583,2.65,5.212,3.976,9.12,5.314
	c0.08-7.877-3.782-15.784-7.631-23.717c7.793,6.635,15.561,15.889,24.741,15.966c-2.535-9.229-7.702-17.151-12.88-25.074
	c7.813,5.316,15.608,11.941,24.765,13.316c1.385-7.87-1.152-17.088-5.022-23.694c6.5,5.3,14.32,10.626,23.493,10.684
	c0.036-5.25,2.718-11.804,0.146-17.083c7.798,7.928,15.569,17.209,27.338,19.908c2.709-9.173-1.136-19.718-3.674-28.938
	c5.188,6.595,10.37,11.896,18.212,14.585c-2.548-7.909-3.771-17.121-2.393-25c7.775,9.265,12.904,21.144,24.662,25.162
	c1.369-6.561,1.442-14.456,0.198-22.341c5.187,6.604,9.039,14.519,12.928,19.806c1.368-6.569,4.06-14.433,11.945-18.323
	c5.186,6.604,7.74,14.522,12.918,21.125c2.681-6.544,4.085-17.053,8.082-24.91c-0.062,6.567,3.816,13.174,6.384,18.435
	c3.995-6.528,7.994-14.395,14.59-19.591c-0.062,6.557,2.502,13.158,5.068,18.427c3.979-5.228,7.967-11.775,10.657-18.327
	c-1.402,9.188-1.478,18.404,5.022,23.694c4.005-7.847,9.288-14.38,15.905-20.913c-0.071,7.886,2.483,15.797,7.67,21.089
	c7.911-5.188,14.539-13.041,21.135-19.558c-0.061,6.557,1.182,15.772,6.365,21.074c6.607-6.525,10.594-13.063,15.915-20.921
	c-1.358,5.251-4.15,23.629,2.376,26.31c6.535,2.673,14.548-15.671,17.22-20.905c1.242,7.894,2.476,15.794,6.365,21.073
	c3.986-7.849,6.688-15.721,9.379-23.584c-1.396,9.188-0.171,18.4,6.327,25.021c6.602-5.224,9.299-14.397,14.602-22.25
	c-2.689,9.184-2.81,21.017,2.367,28.941c2.684-6.554,6.698-15.729,11.974-20.952c1.261,6.584,1.18,15.79,1.115,22.366
	c10.493-2.558,13.233-14.368,18.534-22.22c-1.396,10.51-4.112,21.002-1.585,31.55c1.351-5.26,2.746-14.45,6.735-20.997
	c2.556,7.9-1.47,17.076,1.068,26.302c2.69-6.551,7.975-11.765,11.945-17.003c-1.379,7.88-4.087,18.382-4.171,26.267
	c3.973-2.605,10.543-5.174,14.514-10.422c-1.333,2.624-2.665,5.245-3.999,7.867c5.24-1.274,9.191-2.563,13.152-6.482
	c-5.256,2.594-15.892,19.614-8.096,26.248c6.501,5.291,26.294-9.014,31.553-11.607c-6.578,3.896-6.625,7.833-9.3,13.067
	c2.656-2.604,9.255-7.809,11.91-11.744c-1.385,7.878-2.774,15.768-2.828,22.335c9.185-1.263,15.834-11.717,23.729-15.614
	c-0.1,10.524-8.04,19.67-8.139,30.186c3.971-3.919,10.569-9.132,13.223-14.361c-9.335,19.658,4.986,28.955,22.136,15.925
	c-5.276,3.921-9.273,11.779-9.354,19.655c3.969-3.909,9.219-5.184,13.194-9.099c-3.978,5.228-4.021,10.476-5.392,15.735
	c5.267-1.271,10.488,0.073,15.752-2.52c-10.641,17.019-6.798,27.565,14.25,17.192c-3.963,3.929-5.313,9.18-10.598,13.082
	c5.229,1.355,10.425,6.648,13.033,7.981c-5.237-0.044-13.124,2.535-18.381,3.807c5.186,6.613,11.693,10.604,19.543,13.293
	c-3.928-1.341-7.858-1.371-11.782-1.398c6.451,10.557,19.477,18.547,28.598,25.172c-9.192,2.572-19.651-0.141-27.491-2.826
	c3.84,10.564,12.943,18.507,22.053,25.14c-3.905-2.659-10.45-2.7-14.379-4.03c2.54,9.207,10.334,15.843,15.514,23.758
	c-6.537-1.353-14.387-2.73-20.912-5.402c6.508,3.999,10.388,10.587,12.925,18.513c-5.213-2.674-9.154-1.401-13.042-5.36
	c3.891,5.27,7.758,10.563,11.646,15.86c-2.61-1.333-6.544-1.362-9.146-2.702c3.878,5.296,7.75,11.893,9.01,18.478
	c-6.553-0.043-14.396-2.731-19.604-5.406c2.526,9.218,7.713,15.84,7.646,23.729c-3.906-2.659-9.126-5.333-11.698-10.613
	c3.851,9.244,5.049,21.074,2.354,30.269c-3.896-3.986-10.412-7.978-12.989-13.239c2.577,5.263,2.539,9.22,5.106,15.801
	c-6.529-3.994-6.548-1.035-13.071-2.405c-1.415,10.507,2.499,11.537,6.336,22.073c-3.891-3.969-9.12-5.314-13.008-9.282
	c3.85,7.916,9.01,17.148,8.91,27.663c-6.518-2.679-13.024-7.98-16.904-13.259c5.185,6.604,9.046,13.209,10.288,21.104
	c-5.223-1.346-11.756-4.027-16.949-8.01c6.499,5.301,7.757,10.573,9.019,17.158c-3.905-2.658-9.118-6.652-11.7-10.604
	c3.879,5.285,3.813,11.861,5.095,17.119c-5.223-2.656-11.729-7.959-18.247-11.957c6.498,5.309,9.055,13.21,8.982,21.104
	c-6.537-1.359-14.358-5.357-19.568-9.353c3.888,5.297,5.139,11.87,6.389,18.454c-6.541-1.371-14.347-6.677-20.865-10.659
	c5.187,5.293,7.75,11.884,6.374,19.755c-5.202-3.975-11.746-5.348-16.938-10.642c3.877,6.608,7.747,13.215,8.98,21.104
	c-6.499-3.986-13.025-7.979-20.874-9.349c3.86,6.586,7.729,14.521,7.657,22.397"/>
<path fill="#93278F" stroke="#000000" stroke-width="3" stroke-miterlimit="10" d="M455.801,428.936
	c-96.756,22.493-75.461-129.028-61.613-180.945c1.47-4.412,2.252-11.308,3.382-16.962c-3.557,50.433,52.312,73.877,77.796,108.337
	c20.949,27.685,20.35,83.979-19.902,88.319"/>
<path fill="#93278F" stroke="#000000" stroke-width="3" stroke-miterlimit="10" d="M853.394,410.956
	c90.997,39.896,97.907-112.968,93.852-166.542c-0.624-4.607-0.144-11.528-0.208-17.305c-5.771,50.248-65.016,63.026-96.396,92.205
	c-25.688,23.334-35.427,78.789,3.32,90.483"/>
<ellipse fill="#FFFFFF" stroke="#000000" stroke-width="3" stroke-miterlimit="10" cx="596.064" cy="458.264" rx="52.604" ry="93.539"/>
<ellipse fill="#FFFFFF" stroke="#000000" stroke-width="3" stroke-miterlimit="10" cx="700.792" cy="457.066" rx="52.604" ry="93.54"/>
<ellipse cx="598.03" cy="484.499" rx="22.388" ry="37.215"/>
<ellipse cx="702.03" cy="484.499" rx="22.388" ry="37.214"/>
<path fill="#999999" stroke="#000000" stroke-width="3" stroke-miterlimit="10" d="M761.906,673.549
	c-1.424,6.474-8.396,10.439-15.573,8.861l-232.812-51.229c-7.177-1.578-11.841-8.106-10.416-14.578l11.604-52.738
	c1.424-6.474,8.396-10.44,15.573-8.86l232.812,51.228c7.178,1.578,11.84,8.105,10.416,14.578L761.906,673.549z"/>
<path fill="#999999" stroke="#000000" stroke-width="3" stroke-miterlimit="10" d="M781.378,554
	c-2.216-6.724-9.678-10.512-16.663-8.463l-226.646,66.5c-6.986,2.049-10.854,9.162-8.638,15.885l18.058,54.785
	c2.217,6.724,9.677,10.513,16.664,8.464L790.8,624.672c6.986-2.05,10.854-9.162,8.638-15.886L781.378,554z"/>
<path fill="#29ABE2" stroke="#000000" stroke-width="3" stroke-miterlimit="10" d="M933.719,631.113"/>
<path fill="#148CCF" stroke="#000000" stroke-width="3" stroke-miterlimit="10" d="M394.202,783.367
	c-9.904,1.729-21.284,2.133-32.672,2.536c11.036,3.211,22.54,1.601,29.685-5.167c-12.532-4.53-30.13-7.002-44.506-9.231
	c8.186-0.634,18.068-2.357,26.347-4.194c-9.298-4.302-20.331-7.521-26.186-14.007c11.376-0.396,24.252,0.521,34.375-3.614
	c-5.855-6.489-16.775-10.906-24.347-16.298c7.927,1.771,15.986,2.351,24.037,2.922c-4.378-5.169-8.622-11.534-12.98-16.691
	c9.417,3.079,21.959,7.621,33.341,7.21c0.817-8.419-3.307-16.007-5.708-24.673c4.232,6.37,12.054,9.35,16.421,14.516
	c7.125-6.771,8.065-16.42,10.497-24.731c2.757,5.047,8.841,9.119,11.724,12.96c5.513-6.886,9.677-16.3,19.911-21.638
	c2.641,6.255,6.884,12.629,12.854,17.897c7.022-5.569,12.68-13.654,14.981-20.778c-0.345,3.621,3.787,11.188,3.431,14.809
	c7.02-5.562,14.285-13.554,22.802-17.794c-2.079,4.699,0.551,10.95-1.52,15.661c5.287-4.485,13.816-8.731,20.379-9.472
	c-0.241,2.413,2.387,8.673,0.424,12.165c10.017-2.93,18.65-8.386,28.772-12.522c-1.955,3.501-2.654,10.736-4.612,14.247
	c5.289-4.493,12.207-8.854,20.484-10.688c0.903,7.346-4.629,14.226-10.153,21.116c8.402-3.033,16.685-4.877,26.462-5.4
	c-12.444,11.259-3.374,17.969,12.966,16.707c-4.946,0.844-10.368,6.533-15.425,8.611c6.208,2.865,12.295,6.938,20.229,8.715
	c-1.623-0.114-4.951,0.86-6.554,0.75c12.287,6.935,16.194,16.924-3.258,16.761c4.601,2.745,12.18,8.145,18.393,11.001
	c-3.104-1.416-9.664-0.684-14.371-2.212c7.575,5.383,15.158,10.773,21.013,17.254c-8.051-0.57-17.714-1.257-25.637-3.041
	c4.479,3.969,7.11,10.22,11.582,14.178c-6.313-1.655-12.866-0.914-19.077-3.771c-0.226,2.4,0.915,7.341,2.165,11.064
	c-2.874-3.839-9.198-5.496-12.17-8.144c-0.355,3.621-3.923,7.002-4.164,9.423c-3.088-1.438-10.919-4.426-13.891-7.07
	c1.255,3.732-0.7,7.234-0.94,9.646c-4.597-2.751-12.523-4.528-16.893-9.688c2.87,3.848,2.288,9.867,3.554,13.604
	c-4.48-3.958-14.029-5.852-18.615-8.609c-2.903,13.141-19.474,16.817-19.556,1.038c-0.354,3.62-2.31,7.113-2.543,9.538
	c-2.765-5.058-10.334-10.454-11.605-14.176c-2.067,4.702-7.25,7.979-9.333,12.686c-1.253-3.741-7.227-9.014-8.606-11.54
	c-2.312,7.114-6.107,12.909-14.628,17.167c0.353-3.613-5.511-10.103-6.758-13.833c-2.084,4.715-10.487,7.75-12.453,11.247
	c0.363-3.61-0.896-7.337-0.542-10.948c-5.189,3.265-13.593,6.308-18.763,9.577c0.236-2.398-2.528-7.454-2.4-8.667
	c-5.07,2.083-13.232,2.704-16.678,4.895c1.833-2.305,3.799-5.804,5.639-8.091c-4.939,0.854-12.991,0.283-16.329,1.258
	c3.461-2.173,5.419-5.682,8.864-7.863c-11.62,2.816-21.868,8.159-33.25,8.57c5.414-5.698,10.718-10.171,19.228-14.422
	c-8.394,3.044-16.685,4.885-24.962,6.713c3.679-4.58,10.475-7.741,18.762-9.578"/>
<path fill="#148CCF" stroke="#000000" stroke-width="3" stroke-miterlimit="10" d="M908.036,779.427
	c10.259,1.173,21.967,0.97,33.679,0.761c-11.13,3.737-23.031,2.756-30.764-3.507c12.58-5.095,30.493-8.446,45.114-11.391
	c-8.418-0.185-18.678-1.355-27.276-2.731c9.289-4.697,20.417-8.429,26.042-15.098c-11.722,0.201-24.881,1.776-35.515-1.744
	c5.609-6.671,16.558-11.575,24.02-17.26c-8.021,2.166-16.258,3.14-24.472,4.13c4.15-5.305,8.14-11.767,12.298-17.064
	c-9.493,3.548-22.072,8.637-33.782,8.846c-1.345-8.229,2.44-15.877,4.388-24.492c-3.979,6.463-11.826,9.804-15.988,15.092
	c-7.73-6.27-9.269-15.673-12.249-23.703c-2.523,5.099-8.524,9.4-11.245,13.323c-6.085-6.46-10.911-15.479-21.741-20.166
	c-2.341,6.265-6.31,12.737-12.117,18.229c-7.548-5.094-13.836-12.735-16.61-19.59c0.568,3.524-3.216,11.163-2.646,14.699
	c-7.548-5.095-15.463-12.532-24.46-16.267c2.419,4.512,0.073,10.776,2.496,15.28c-5.7-4.092-14.69-7.819-21.476-8.203
	c0.39,2.352-1.934,8.625,0.279,11.952c-10.438-2.346-19.633-7.24-30.267-10.765c2.214,3.321,3.367,10.375,5.58,13.703
	c-5.698-4.101-13.055-8.019-21.655-9.388c-0.483,7.25,5.595,13.712,11.68,20.187c-8.795-2.553-17.397-3.922-27.475-3.91
	c13.44,10.378,4.517,17.428-12.312,17.056c5.131,0.584,11.021,5.865,16.345,7.633c-6.203,3.137-12.212,7.444-20.233,9.609
	c1.646-0.197,5.128,0.582,6.763,0.377c-12.203,7.47-15.59,17.451,4.333,16.274c-4.559,2.938-12.01,8.63-18.213,11.758
	c3.107-1.563,9.88-1.173,14.624-2.94c-7.465,5.691-14.914,11.367-20.537,18.046c8.228-0.991,18.097-2.17,26.13-4.335
	c-4.357,4.119-6.69,10.401-11.058,14.514c6.389-1.96,13.162-1.577,19.368-4.711c0.386,2.357-0.497,7.252-1.559,10.977
	c2.706-3.923,9.095-5.883,11.999-8.629c0.59,3.525,4.438,6.656,4.825,9.016c3.108-1.578,10.943-4.912,13.858-7.651
	c-1.076,3.725,1.14,7.054,1.516,9.404c4.571-2.944,12.594-5.102,16.775-10.407c-2.722,3.932-1.764,9.81-2.829,13.534
	c4.344-4.12,14.03-6.478,18.592-9.421c3.752,12.731,20.966,15.479,20.128-0.009c0.57,3.525,2.796,6.854,3.182,9.214
	c2.518-5.099,9.979-10.782,11.043-14.508c2.41,4.505,7.924,7.445,10.344,11.949c1.077-3.732,6.884-9.219,8.139-11.76
	c2.808,6.855,7.043,12.344,16.043,16.059c-0.582-3.526,5.041-10.188,6.105-13.906c2.433,4.496,11.227,7.049,13.438,10.369
	c-0.578-3.519,0.496-7.242-0.072-10.77c5.517,2.925,14.312,5.478,19.815,8.4c-0.379-2.343,2.129-7.448,1.945-8.617
	c5.334,1.76,13.74,1.961,17.43,3.916c-2.033-2.154-4.259-5.488-6.291-7.644c5.131,0.582,13.347-0.394,16.841,0.388
	c-3.679-1.956-5.896-5.292-9.57-7.247c12.096,2.148,22.923,6.854,34.621,6.65c-5.88-5.291-11.589-9.408-20.578-13.129
	c8.793,2.554,17.405,3.914,26.02,5.276c-4.055-4.3-11.215-7.05-19.816-8.408"/>
</svg>
