<?xml version="1.0" encoding="utf-8"?>
<!-- Generator: Adobe Illustrator 16.0.0, SVG Export Plug-In . SVG Version: 6.00 Build 0)  -->
<!DOCTYPE svg PUBLIC "-//W3C//DTD SVG 1.1//EN" "http://www.w3.org/Graphics/SVG/1.1/DTD/svg11.dtd">
<svg version="1.1" id="Laag_1" xmlns="http://www.w3.org/2000/svg" xmlns:xlink="http://www.w3.org/1999/xlink" x="0px" y="0px"
	 width="564.051px" height="623.494px" viewBox="0 0 564.051 623.494" enable-background="new 0 0 564.051 623.494"
	 xml:space="preserve">
<polygon fill="#FFFFFF" stroke="#000000" stroke-width="2" stroke-miterlimit="10" points="166.134,450.608 161.206,459.147 
	154.773,449.741 148.424,440.382 159.743,441.228 171.066,442.069 "/>
<polygon fill="#FFFFFF" stroke="#000000" stroke-width="2" stroke-miterlimit="10" points="156.469,467.585 151.258,475.956 
	145.146,466.345 139.105,456.78 150.392,458.001 161.68,459.212 "/>
<polygon fill="#FFFFFF" stroke="#000000" stroke-width="2" stroke-miterlimit="10" points="145.159,483.657 138.817,491.208 
	134.126,480.825 129.501,470.503 140.5,473.308 151.504,476.106 "/>
<polygon fill="#FFFFFF" stroke="#000000" stroke-width="2" stroke-miterlimit="10" points="133.423,497.116 126.74,504.368 
	122.532,493.778 118.388,483.253 129.249,486.565 140.111,489.868 "/>
<polygon fill="#FFFFFF" stroke="#000000" stroke-width="2" stroke-miterlimit="10" points="88.7,370.071 98.212,372.661 
	90.757,381.276 83.325,389.802 81.256,378.64 79.185,367.479 "/>
<polygon fill="#FFFFFF" stroke="#000000" stroke-width="2" stroke-miterlimit="10" points="107.992,376.636 117.043,380.546 
	108.44,388.021 99.876,395.407 99.412,384.065 98.939,372.722 "/>
<polygon fill="#FFFFFF" stroke="#000000" stroke-width="2" stroke-miterlimit="10" points="125.969,384.278 134.885,388.487 
	126.043,395.669 117.238,402.771 117.148,391.421 117.052,380.065 "/>
<polygon fill="#FFFFFF" stroke="#000000" stroke-width="2" stroke-miterlimit="10" points="143.238,393.657 151.469,399.085 
	141.698,404.944 131.979,410.728 133.495,399.479 135.006,388.224 "/>
<polygon fill="#FFFFFF" stroke="#000000" stroke-width="2" stroke-miterlimit="10" points="157.962,403.763 165.935,409.565 
	155.903,414.966 145.925,420.296 147.961,409.128 149.99,397.956 "/>
<path fill="#FFFFFF" stroke="#000000" stroke-width="2" stroke-linecap="round" stroke-miterlimit="10" d="M100.407,472.103
	c-0.912,2.072-3.646,5.201-1.313,20.344c2.331,15.143,15.573,25.904,15.573,25.904s26.202-12.402,20.51-13.033
	C110.305,502.558,100.407,472.103,100.407,472.103"/>
<path fill="#FFFFFF" stroke="#000000" stroke-width="2" stroke-linecap="round" stroke-miterlimit="10" d="M61.292,415.876
	c-1.565-1.77-5.212-3.869-8.152-20.598c-2.941-16.727,5.914-33.51,5.914-33.51s28.971,1.828,23.807,4.889
	C60.297,380.03,61.292,415.876,61.292,415.876"/>
<path fill="#93278F" stroke="#000000" stroke-width="2" stroke-miterlimit="10" d="M213.46,196.91
	c-94.64-5.775-33.892-138.589-7.081-182.312c2.543-3.638,5.138-9.732,7.711-14.598c-16.986,45.168,27.736,81.832,41.664,120.298
	c11.624,31.031-4.258,82.369-42.264,75.376"/>
<path fill="#29ABE2" stroke="#000000" stroke-width="2" stroke-miterlimit="10" d="M431.221,136.4
	c-0.256-1.019,2.033-1.625,1.764-2.649L431.221,136.4c-2.145,2.73-2.936,5.137-3.469,8.538c8.016-2.086,15.229-7.247,22.473-12.404
	c-5.094,7.868-12.852,16.432-10.988,23.588c8.836-4.491,15.789-10.668,22.742-16.854c-3.75,7.524-8.834,15.392-8.297,22.882
	c8.285-1.071,17.111-5.559,23.002-10.37c-4.01,6.499-7.77,14.032-5.891,21.178c5.34-1.407,12.561-1.109,17.379-4.551
	c-6.406,8.224-14.189,16.799-14.447,26.681c9.889-0.397,19.785-6.261,28.611-10.751c-5.604,5.83-9.893,11.306-10.969,18.135
	c7.496-4.139,16.59-7.605,24.887-8.683c-7.77,8.572-18.75,15.8-20.35,26.037c6.953-0.728,14.984-2.826,22.729-5.945
	c-5.615,5.832-12.838,10.988-17.387,15.454c6.961-0.731,15.516-0.785,21.131,4.283c-5.611,5.834-13.115,9.979-18.729,15.805
	c7.213,0.298,18.18-1.477,27-0.514c-6.682,1.742-12.57,6.563-17.369,9.991c7.473,1.325,16.303,2.285,22.973,5.992
	c-6.672,1.744-12.834,5.538-17.645,8.973c6.148,1.663,13.641,2.978,20.859,3.281c-9.625,1.418-19.002,3.875-23.004,10.372
	c8.816,0.971,16.566,3.292,24.598,6.652c-8.023,2.1-15.518,6.242-19.801,11.717c6.941,4.732,16.314,7.743,24.322,11.09
	c-6.672,1.744-15.77,5.223-20.057,10.697c8.021,3.357,15.504,4.67,24.604,6.662c-5.619,0.377-24.871,3.221-26.219,9.027
	c-1.334,5.809,18.988,7.027,24.867,7.678c-7.756,3.121-15.52,6.234-20.059,10.699c8.812,0.955,17.377,0.904,25.934,0.854
	c-9.629,1.422-18.727,4.889-24.076,11.746c6.695,3.703,16.582,3.299,25.674,5.275c-9.893,0.418-21.936,3.555-28.887,9.738
	c7.221,0.295,17.385,0.914,23.801,3.588c-6.418,2.775-15.783,5.227-22.477,6.973c4.812,7.459,17.385,6.359,26.475,8.344
	c-10.965,1.781-22.193,2.531-32.373,7.377c5.631-0.387,15.254-1.812,22.746-0.498c-7.484,4.145-17.65,3.521-26.486,8.012
	c7.223,0.307,13.631,2.988,19.789,4.645c-8.293,1.08-19.533,1.84-27.555,3.932c3.482,2.373,7.477,6.777,13.646,8.434
	c-2.943-0.318-5.891-0.641-8.834-0.961c2.402,3.725,4.543,6.445,9.359,8.453c-3.746-3.381-23.273-6.998-28.363,0.873
	c-4.002,6.496,14.703,17.979,18.445,21.354c-5.346-4.049-9.354-3.012-15.23-3.658c3.203,1.352,9.883,5.061,14.438,6.051
	c-8.293,1.074-16.596,2.146-23.275,3.898c3.217,6.793,15.238,9.107,20.863,14.182c-10.707,2.795-21.674-0.879-32.373,1.912
	c4.818,2.018,11.506,5.725,17.373,6.359c-21.932-1.895-28.35,11.775-11.498,21.551c-5.096-3.031-13.922-3.992-21.936-1.904
	c4.809,2.016,7.207,5.748,12.023,7.771c-6.146-1.666-11.488-0.27-17.115,0.104c2.4,3.744,2.139,8.17,5.881,11.555
	c-19.527-3.625-29.426,2.24-14.451,15.77c-4.824-2.008-10.439-1.627-15.521-4.666c-0.271,4.432-4.551,9.914-5.354,12.307
	c-1.062-4.08-5.346-9.508-7.746-13.246c-5.621,5.834-8.301,11.982-9.373,18.816c0.531-3.416-0.271-6.48-1.068-9.541
	c-9.357,7.898-14.721,20.203-19.527,29.1c-4.551-6.441-4.008-15.311-2.932-22.141c-9.918,5.871-16.062,15.113-20.873,24.002
	c1.873-3.762,0.533-8.857,1.059-12.273c-8.816,4.488-13.908,12.354-20.854,18.539c-0.004-5.447-0.264-11.922,1.072-17.729
	c-2.689,6.148-8.561,10.965-16.072,15.098c1.617-4.777-0.508-7.494,2.693-11.598c-4.531,4.463-9.096,8.914-13.652,13.379
	c0.803-2.391,0.002-5.459,0.812-7.844c-4.559,4.459-10.438,9.27-16.859,12.045c-1.338-5.105-0.266-11.934,1.354-16.713
	c-8.828,4.479-14.461,10.316-22.48,12.422c1.875-3.764,3.486-8.549,8.309-11.99c-8.574,5.518-20.337,9.674-30.243,10.092
	c3.229-4.117,5.905-10.271,10.705-13.711c-4.8,3.439-8.826,4.49-14.97,8.281c2.679-6.162,8.021-13.012,8.034-18.457
	c-10.968,1.768-19.537,12.734-29.43,18.59c3.212-4.104,3.476-8.539,6.682-12.643c-7.226,5.152-15.515,11.684-26.211,14.475
	c1.345-5.793,5.354-12.301,9.896-16.756c-5.61,5.834-11.505,10.635-19.259,13.756c0.267-4.426,1.609-10.238,4.556-15.361
	c-4.009,6.5-9.1,8.916-15.519,11.693c1.876-3.762,4.829-8.898,8.298-11.99c-4.549,4.457-11.238,6.205-16.311,8.635
	c1.595-4.783,5.605-11.289,8.293-17.445c-4.02,6.502-11.502,10.643-19.536,12.74c0.003-5.451,2.412-12.619,5.368-17.762
	c-4.561,4.469-10.972,7.232-17.393,10.004c0.012-5.459,3.751-12.975,6.42-19.129c-4.279,5.477-10.432,9.268-18.714,10.348
	c2.937-5.127,2.949-10.592,7.229-16.072c-5.894,4.816-11.783,9.629-19.538,12.74c2.68-6.141,5.356-12.303,5.09-18.773
	c-5.872,4.799-13.116,9.969-21.128,12.064c2.946-5.123,4.279-10.938,7.229-16.062c-4.282,5.482-11.246,11.67-17.396,15.453
	c3.749-7.527,6.428-13.678,8.564-21.873c-1.332,0.346-30.838,14.047-33.522,14.734c58.375-46.75,87.395-109.252,84.578-118.43
	c-2.305-7.512-78.708-70.943-162.31-57.887c-2.875,0.449,6.235-8.354,13.835-16.965c7.151-8.102,9.525-6.029,3.098-3.924
	c-65.684,21.525,23.305-12.377-2.528-13.498c-38.815-1.684-27.599-0.279-9.439-9.395c17.565-8.818-16.603-11.411-12.92-14.2
	c8.249-6.24,28.198-1.332,20.118-8.803c-8.781-8.121-19.42-6.893-19.736-10.055c-0.273-2.733,7.498-3.464,14.812-4.08
	c7.729-0.653,14.943-1.178,11.616-3.806c-25.656-20.256-11.417-12.565,1.748-9.907c5.341,1.076,5.2-6.128,1.759-7.113
	c-55.167-15.803,8.537-2.381,2.557-8.294c-4.818-4.763-9.957-8.746-11.208-8.062c-2.283,1.248,19.863,3.564,14.807-4.354
	c-32.743-51.272,0.253,0.411,8.542-15.248c2.847-5.379-9.822-28.026-11.06-33.859c-1.729-8.148,17.356,17.082,21.032,10.13
	c1.867,7.146-8.421-32.374-4.921-28.68c7.403,5.556,17.855,24.312,20.468,18.588c2.609-5.725-8.391-29.022-6.253-34.488
	c0.539,2.033,13.133,21.915,13.673,23.955c-0.875-5.926-0.389-12.693,0.651-19.408c1.17-7.553,3.039-15.038,4.46-21.181
	c2.199,10.464,5.757,14.594,9.57,14.516c6.355-0.131,5.108-10.027,7.789-23.678c0.799,3.066,10.533,12.665,9.651,8.636
	c0.816-7.844,2.955-16.04,9.647-23.235c0.8,8.517-1.351,16.712,4.534,22.797c10.16-4.826,13.381-14.393,19.805-22.618
	c0.266,6.474-0.811,13.296,1.862,18.049c8.557-5.512,14.711-14.749,21.147-22.971c-0.275,4.428,2.388,9.185,2.925,11.225
	c4.553-4.465,8.851-9.95,12.842-16.44c-0.265,4.427,2.418,9.181,2.146,13.616c9.63-6.875,14.192-16.792,20.334-26.042
	c-1.604,4.785,1.338,10.563,0.797,13.974c6.964-6.186,13.918-12.364,20.86-18.54c-2.942,16.039,10.177,16.973,20.601,2.242
	c-0.53,3.416,1.88,7.153,1.078,9.538c4.547-4.466,9.893-11.308,14.722-14.75c-0.273,4.434-0.008,10.91-0.276,15.344
	c8.836-4.49,14.711-14.749,21.672-20.944c-0.002,5.459-1.078,12.279-1.082,17.737c7.756-3.112,14.438-10.322,18.74-15.808
	c-0.543,3.419-1.881,9.214-3.756,12.981c4.551-4.464,9.893-5.855,14.438-10.32c-1.875,3.761-2.139,8.188-4.012,11.957
	c5.605-0.382,1.068-1.37,4.547,0.991c3.467-3.095,7.223-5.153,10.439-9.282c-4.021,6.506-3.756,12.981-1.082,17.736
	c8.826-4.481,15.781-10.668,24.865-14.13c-2.396,7.167-5.617,16.734-1.064,23.176c7.217-5.159,15.514-11.69,25.682-16.532
	c-14.982,19.192,5.604,21.442,23,11.447c-2.689,6.149-5.357,12.301-5.109,18.771c9.373-2.442,18.201-6.933,24.082-11.748
	c-3.205,4.12-4.811,8.898-8.02,13.003c7.482-4.128,13.105-9.955,18.988-14.773C423.75,124.183,438.188,130.22,431.221,136.4"/>
<path fill="#148CCF" stroke="#000000" stroke-width="2" stroke-miterlimit="10" d="M366.812,599.679
	c8.039,0.66,17.314,0.445,26.598,0.223c-9.043,2.441-18.4,1.912-24.117-1.973c10.279-3.312,24.666-5.559,36.422-7.523
	c-6.648-0.057-14.689-0.717-21.406-1.518c7.65-3.033,16.689-5.471,21.564-9.717c-9.285,0.217-19.797,1.311-27.986-0.828
	c4.867-4.248,13.838-7.424,20.105-11.062c-6.484,1.424-13.062,2.104-19.623,2.791c3.619-3.379,7.188-7.482,10.818-10.854
	c-7.74,2.309-18.016,5.607-27.293,5.832c-0.543-5.176,2.941-10.027,5.029-15.477c-3.557,4.105-9.979,6.273-13.611,9.637
	c-5.715-3.895-6.332-9.811-8.178-14.848c-2.326,3.23-7.342,5.988-9.746,8.482c-4.402-4.027-7.646-9.674-15.916-12.547
	c-2.254,3.967-5.803,8.078-10.75,11.586c-5.646-3.156-10.135-7.928-11.893-12.229c0.225,2.223-3.254,7.064-3.029,9.289
	c-5.646-3.154-11.437-7.783-18.315-10.07c1.626,2.824-0.631,6.797,1.002,9.613c-4.249-2.535-11.125-4.816-16.468-5.008
	c0.156,1.479-2.084,5.453-0.544,7.533c-8.108-1.4-15.068-4.414-23.257-6.559c1.54,2.076,1.999,6.518,3.54,8.6
	c-4.246-2.541-9.813-4.957-16.532-5.756c-0.846,4.576,3.552,8.604,7.948,12.639c-6.792-1.545-13.511-2.344-21.487-2.256
	c9.977,6.438,2.468,10.949-10.824,10.844c4.021,0.33,8.347,3.617,12.446,4.689c-5.107,2.021-10.141,4.785-16.624,6.209
	c1.312-0.135,4.02,0.328,5.324,0.188c-10.13,4.803-13.444,11.121,2.395,10.229c-3.797,1.889-10.056,5.531-15.159,7.551
	c2.559-1.012,7.893-0.812,11.757-1.965c-6.27,3.645-12.525,7.279-17.399,11.529c6.569-0.686,14.454-1.504,20.946-2.932
	c-3.71,2.631-5.954,6.609-9.669,9.236c5.179-1.285,10.511-1.096,15.621-3.119c0.151,1.482-0.854,4.578-1.935,6.932
	c2.395-2.49,7.569-3.775,10.044-5.531c0.242,2.221,3.089,4.166,3.245,5.65c2.56-1.021,8.974-3.182,11.453-4.932
	c-1.089,2.355,0.449,4.438,0.6,5.918c3.804-1.893,10.284-3.312,13.937-6.689c-2.403,2.5-2.021,6.197-3.104,8.553
	c3.701-2.631,11.517-4.188,15.312-6.078c2.155,7.998,15.601,9.6,15.926-0.158c0.227,2.219,1.772,4.301,1.931,5.783
	c2.312-3.232,8.583-6.873,9.663-9.229c1.617,2.822,5.795,4.637,7.422,7.457c1.086-2.361,6.031-5.865,7.188-7.479
	c1.783,4.303,4.783,7.729,11.67,10.002c-0.232-2.221,4.639-6.461,5.721-8.814c1.633,2.818,8.43,4.361,9.971,6.438
	c-0.234-2.215,0.854-4.568,0.627-6.787c4.178,1.799,10.973,3.344,15.146,5.145c-0.152-1.477,2.156-4.711,2.086-5.445
	c4.107,1.066,10.748,1.131,13.543,2.332c-1.473-1.342-3.021-3.426-4.492-4.768c4.02,0.326,10.584-0.35,13.295,0.113
	c-2.783-1.201-4.32-3.291-7.105-4.494c9.436,1.262,17.697,4.146,26.969,3.932c-4.318-3.291-8.57-5.842-15.445-8.119
	c6.797,1.541,13.523,2.334,20.25,3.129c-2.934-2.682-8.422-4.359-15.143-5.154"/>
<path fill="#93278F" stroke="#000000" stroke-width="2" stroke-miterlimit="10" d="M324.225,198.683
	c85.5,41.039,97.098-104.561,94.98-155.8c-0.445-4.416,0.24-11.002,0.367-16.515c-7.148,47.745-64.082,57.995-94.975,84.803
	c-25.27,21.418-36.375,74,0.205,86.424"/>
<ellipse fill="#FFFFFF" stroke="#000000" stroke-width="3" stroke-miterlimit="10" cx="134.145" cy="265.724" rx="45.078" ry="80.156"/>
<ellipse cx="119.206" cy="293.931" rx="15.996" ry="26.588"/>
</svg>
