<?xml version="1.0" encoding="utf-8"?>
<!-- Generator: Adobe Illustrator 16.0.0, SVG Export Plug-In . SVG Version: 6.00 Build 0)  -->
<!DOCTYPE svg PUBLIC "-//W3C//DTD SVG 1.1//EN" "http://www.w3.org/Graphics/SVG/1.1/DTD/svg11.dtd">
<svg version="1.1" id="Layer_1" xmlns="http://www.w3.org/2000/svg" xmlns:xlink="http://www.w3.org/1999/xlink" x="0px" y="0px"
	 width="147.875px" height="100.109px" viewBox="345.996 545.943 147.875 100.109"
	 enable-background="new 345.996 545.943 147.875 100.109" xml:space="preserve">
<g id="Layer_5">
	<path fill="#FFE000" d="M364.75,559.55v4.25l-3.871,1.549l1.937,35.202l13.436,17.5l70.75,11l42-31.5l2.105-3.25l-6.949-6.439
		l2.51-8.852l-0.52-8.646l-5.133-3.407l-8.852,5.117l-3.213,1.119c0,0,4.479-5.321,5.641-8.731c1.16-3.41,3.439-11.148,4.205-12.279
		c0,0,2.08-1.692-7.295-5.631c0,0-4.26,3.217-7.191,4.737c-2.93,1.52-7.529,3.921-17.17,11.592
		c-9.639,7.671-20.664,11.183-25.068,11.239c-4.404,0.057-16.973,2.33-26.755,1.083c-9.783-1.247-20.864-3.667-20.864-3.667
		s-8.449-9.068-9.282-11.984L364.75,559.55L364.75,559.55z"/>
</g>
<g id="Omlijning">
	<path fill="#8E3F13" stroke="#000000" stroke-miterlimit="10" d="M353.5,549.3l11.25,10.25v3.75l-8.5,4.5c0,0-10-1.75-9.75-9.25
		h2.25l-1.25-3.25L353.5,549.3z"/>
	<path fill="#FFE000" stroke="#000000" stroke-miterlimit="10" d="M483.31,588.394c0,0,5.689-13.094,4.189-17.344l-1.969-1
		c0,0,0.219,4-3.531,6.25c0,0-4,0.177-16.75,9.588c0,0-33,28.413-79.25-1.838c0,0-3.66-4.675-9.5-4.25l-10.924-15.34
		c0,0,3.924,16.34,7.674,19.84c0,0,3.25,0.25,7,3.75s29.83,34.25,73.25,13c0,0,17.75-10.25,26-10.25l4.75-3l4.75,4"/>
	<path fill="none" d="M364.75,561.05c0,0,14.25,14.5,15.75,15"/>
	<path fill="none" stroke="#000000" stroke-miterlimit="10" d="M405.792,583.356c51.866,5.934,70.958-34.057,70.958-34.057
		l-5.25-2.75c0,0-2.332,2.167-5,3.667c-2.666,1.5-6.168,1.987-21.334,14.244s-44.628,14.104-70.715,7.074"/>
	<path fill="none" stroke="#000000" stroke-miterlimit="10" d="M476.75,549.3"/>
	<path fill="none" stroke="#000000" stroke-miterlimit="10" d="M485.531,570.05c0,0-4.701-4.167-5.535-3s-6,5-14.5,7.5
		c-6.721,1.978-18.467,19.853-65.496,7.333c0,0-14.229-4.415-20.334-5.312c0,0-6.498-5.188-14.916-17.021"/>
	<path fill="none" stroke="#000000" stroke-miterlimit="10" d="M476.75,549.3c0,0,3.334,1.417,1.5,4.583
		c-1.832,3.166-2.416,5.333-2.5,7.167c-0.082,1.834-4.326,10.702-7.371,12.561"/>
	<path fill="#FFE000" stroke="#000000" stroke-miterlimit="10" d="M365.576,563.8l-4.697,1.549
		c-0.506,3.434,5.621,22.201,5.621,22.201c5.205,1.002,5.5,2.75,5.5,2.75c42.484,50.094,80.39,27.542,101.25,9.75
		c8.5-7.25,15.75-8.25,15.75-8.25l4,4.75c1.75-0.75-3.25,7.5-3.25,7.5c-12.5,42.5-73,41.5-73,41.5c-63-6.5-61-50-56.75-53.25
		s-3-24.5-3-24.5l3.516-2.258"/>
</g>
</svg>
