<?xml version="1.0" encoding="utf-8"?>
<!-- Generator: Adobe Illustrator 16.0.0, SVG Export Plug-In . SVG Version: 6.00 Build 0)  -->
<!DOCTYPE svg PUBLIC "-//W3C//DTD SVG 1.1//EN" "http://www.w3.org/Graphics/SVG/1.1/DTD/svg11.dtd">
<svg version="1.1" id="Layer_1" xmlns="http://www.w3.org/2000/svg" xmlns:xlink="http://www.w3.org/1999/xlink" x="0px" y="0px"
	 width="109.32px" height="106.504px" viewBox="0 0 109.32 106.504" enable-background="new 0 0 109.32 106.504"
	 xml:space="preserve">
<g id="invulling_blaadje">
	<path fill="#026602" d="M45.185,49.806l2.766,0.469l7.262-17.271c0,0,9.359-18.207,9.752-18.051
		c0.394,0.154-0.471,5.822-0.471,5.822s-0.689,9.004-0.228,10.447c0.461,1.447,1.312,12.459,7.418,17.768l2.107-0.734
		c0,0-10.934-17.68-3.467-35.758l3.6-7.26l1.24-4.254l-0.248-0.941l-1.9,1.105l-4.881,5.797c0,0-5.022,4.701-7.567,5.439
		c-2.547,0.74-3.097,1.504-12.873-0.512c-9.777-2.016-24.005,0.281-29.445,4.578c-5.44,4.299-11.781,9.676-14.426,18.004
		c-2.646,8.328-4.093,14.174-3.781,15.35c0,0,3.375-2.135,6.625-1.26c0,0,19.112-0.725,29.806-8.488
		c10.694-7.762,13.944-10.387,21.444-22.887l1.762,0.256l-5.938,11.467C53.74,28.894,44.452,47.816,45.185,49.806z"/>
</g>
<g id="invulling_kers_2">
	<path fill="#B71824" d="M54.278,52.371l-6.329,27.588l20.604,9.85c0,0,16.543,7.984,30.767-7.059c0,0,8.133-8.271,8.967-23.615
		c0.834-15.338-10.238-18.5-18.494-19.42s-11.033,3.738-11.033,3.738s-4.842,5.131-5.217,5.193s-9.875,2.033-11.375,1.947
		S54.95,51.408,54.278,52.371z"/>
</g>
<g id="invulling_kers">
	<path fill="#B71824" d="M44.667,49.806c0,0-7.375-1.592-11.5-1.551s-12.692,2.473-17.284,7.318s-7.42,16.305-7.129,20.096
		c0.291,3.793,0.451,8.998,6.619,18.416s15.084,10.971,24.751,11.402c9.667,0.43,18.603-7.723,24.011-14.979
		c5.406-7.258,5.617-21.703,4.388-22.271C67.292,67.669,67.542,53.275,44.667,49.806z"/>
</g>
<g id="omlijning">
	<path fill="none" stroke="#000000" stroke-miterlimit="10" d="M25.357,49.66c0,0-9.033,3.012-12.445,10.037
		c-3.412,7.023-5.62,15.455-3.011,23.285c1.183,3.551,6.633,17.471,16.799,20.43c19.179,5.582,25.105-1.281,32.062-6.545
		c7.203-5.449,10.354-17.9,10.354-23.521s-2.289-13.641-9.836-18.266c-8.446-5.176-9.31-4.281-10.863-4.701
		c-1.733-0.469-14.028-2.125-15.634-2.125C31.177,48.253,25.357,49.66,25.357,49.66z"/>
	<path fill="none" stroke="#000000" stroke-miterlimit="10" d="M65.125,87.919c0.061,0.125,8.104,5.75,19.541,3.375
		c0,0,11.377-3.209,15.877-10.209c4.498-7,5.676-7.748,7.342-18.582c0,0,4.845-21.459-18.094-22.828
		c-10.604-0.633-13.582,7.828-16,8.578c-2.416,0.75,0.918,0.084-6.5,1.75c-7.416,1.666-4.188-1.084-13.25,2.119"/>
	<path fill="none" stroke="#000000" stroke-miterlimit="10" d="M47.949,50.273c0,0,4.468-11.23,4.968-12.23
		s12.125-23.873,12.5-23.623s-5.965,22.389,6.268,34.57"/>
	<path fill="none" stroke="#000000" stroke-miterlimit="10" d="M73.792,48.253C60.167,25.337,73.417,6.294,73.417,6.294
		c1.035-1.729,4.75-12.25-3.375-1.625s-16,8.5-16,8.5c-51.125-12.625-54,36-54,36c2.259-1.15,20.237,0.203,32.407-6.682
		c18.117-10.25,23.655-22.32,25.467-25.318c0,0,0,0,1.9,0c0,0-14.865,27.521-14.634,32.637"/>
</g>
</svg>
