<?xml version="1.0" encoding="utf-8"?>
<!-- Generator: Adobe Illustrator 16.0.0, SVG Export Plug-In . SVG Version: 6.00 Build 0)  -->
<!DOCTYPE svg PUBLIC "-//W3C//DTD SVG 1.1//EN" "http://www.w3.org/Graphics/SVG/1.1/DTD/svg11.dtd">
<svg version="1.1" id="Layer_1" xmlns="http://www.w3.org/2000/svg" xmlns:xlink="http://www.w3.org/1999/xlink" x="0px" y="0px"
	 width="109.321px" height="106.505px" viewBox="366.449 537.363 109.321 106.505"
	 enable-background="new 366.449 537.363 109.321 106.505" xml:space="preserve">
<g id="invulling_blaadje">
	<path fill="#026602" d="M412.143,587.686l2.765,0.468l7.262-17.271c0,0,9.359-18.206,9.752-18.051s-0.471,5.823-0.471,5.823
		s-0.689,9.003-0.227,10.448c0.461,1.446,1.311,12.458,7.418,17.766l2.107-0.734c0,0-10.934-17.68-3.467-35.757l3.6-7.261
		l1.24-4.254l-0.248-0.94l-1.9,1.104l-4.881,5.798c0,0-5.023,4.7-7.568,5.44c-2.547,0.74-3.096,1.504-12.873-0.512
		c-9.777-2.017-24.005,0.28-29.445,4.578s-11.781,9.675-14.426,18.003c-2.646,8.328-4.093,14.174-3.781,15.351
		c0,0,3.375-2.136,6.625-1.261c0,0,19.112-0.725,29.806-8.487c10.694-7.762,13.944-10.388,21.444-22.888l1.762,0.256l-5.938,11.467
		C420.697,566.773,411.41,585.696,412.143,587.686z"/>
</g>
<g id="invulling_kers_2">
	<path fill="#B71824" d="M421.235,590.251l-6.329,27.588l20.605,9.848c0,0,16.543,7.986,30.766-7.057c0,0,8.133-8.273,8.967-23.615
		c0.834-15.339-10.238-18.5-18.494-19.42s-11.033,3.737-11.033,3.737s-4.842,5.132-5.217,5.194
		c-0.375,0.062-9.875,2.034-11.375,1.948S421.908,589.288,421.235,590.251z"/>
</g>
<g id="invulling_kers">
	<path fill="#B71824" d="M411.625,587.686c0,0-7.375-1.592-11.5-1.551s-12.692,2.473-17.284,7.319
		c-4.592,4.846-7.42,16.305-7.129,20.096c0.291,3.793,0.451,8.998,6.619,18.416s15.084,10.971,24.751,11.402
		c9.667,0.43,18.603-7.723,24.011-14.979c5.406-7.258,5.617-21.703,4.387-22.271S434.5,591.155,411.625,587.686z"/>
</g>
<g id="omlijning">
	<path fill="none" stroke="#000000" stroke-miterlimit="10" d="M392.314,587.539c0,0-9.033,3.012-12.445,10.037
		c-3.412,7.025-5.62,15.455-3.011,23.285c1.183,3.551,6.633,17.471,16.799,20.43c19.179,5.582,25.106-1.281,32.063-6.545
		c7.203-5.449,10.354-17.9,10.354-23.521s-2.289-13.641-9.836-18.266c-8.446-5.175-9.309-4.281-10.863-4.701
		c-1.733-0.468-14.028-2.124-15.634-2.124C398.135,586.133,392.314,587.539,392.314,587.539z"/>
	<path fill="none" stroke="#000000" stroke-miterlimit="10" d="M432.083,625.8c0.061,0.125,8.104,5.75,19.541,3.375
		c0,0,11.377-3.209,15.877-10.209c4.498-7,5.676-7.748,7.342-18.582c0,0,4.844-21.459-18.094-22.829
		c-10.605-0.633-13.582,7.829-16,8.579c-2.416,0.75,0.918,0.083-6.5,1.749c-7.416,1.666-4.188-1.083-13.25,2.12"/>
	<path fill="none" stroke="#000000" stroke-miterlimit="10" d="M414.907,588.152c0,0,4.468-11.229,4.968-12.229
		S432,552.05,432.375,552.3s-5.965,22.388,6.268,34.569"/>
	<path fill="none" stroke="#000000" stroke-miterlimit="10" d="M440.75,586.134c-13.625-22.916-0.375-41.959-0.375-41.959
		c1.035-1.73,4.75-12.25-3.375-1.625s-16,8.5-16,8.5c-51.125-12.625-54,36-54,36c2.259-1.151,20.237,0.202,32.407-6.683
		c18.117-10.249,23.655-22.32,25.467-25.317c0,0,0,0,1.9,0c0,0-14.865,27.521-14.633,32.636"/>
</g>
</svg>
